<?xml version="1.0" encoding="UTF-8" standalone="no"?>
<svg
   width="352.97903"
   height="162.97701"
   viewBox="0 0 352.97903 162.97701"
   version="1.1"
   xml:space="preserve"
   style="clip-rule:evenodd;fill-rule:evenodd;stroke-linejoin:round;stroke-miterlimit:2"
   id="svg159"
   sodipodi:docname="boardhd.svg"
   inkscape:version="1.4 (e7c3feb100, 2024-10-09)"
   xmlns:inkscape="http://www.inkscape.org/namespaces/inkscape"
   xmlns:sodipodi="http://sodipodi.sourceforge.net/DTD/sodipodi-0.dtd"
   xmlns="http://www.w3.org/2000/svg"
   xmlns:svg="http://www.w3.org/2000/svg"
   xmlns:serif="http://www.serif.com/"><defs
     id="defs159" /><sodipodi:namedview
     id="namedview159"
     pagecolor="#ffffff"
     bordercolor="#000000"
     borderopacity="0.25"
     inkscape:showpageshadow="2"
     inkscape:pageopacity="0.0"
     inkscape:pagecheckerboard="0"
     inkscape:deskcolor="#d1d1d1"
     showgrid="false"
     inkscape:zoom="3.57"
     inkscape:cx="204.7619"
     inkscape:cy="101.2605"
     inkscape:window-width="2502"
     inkscape:window-height="1025"
     inkscape:window-x="32"
     inkscape:window-y="0"
     inkscape:window-maximized="0"
     inkscape:current-layer="svg159"><inkscape:grid
       id="grid160"
       units="px"
       originx="28.520049"
       originy="0"
       spacingx="1"
       spacingy="1"
       empcolor="#0099e5"
       empopacity="0.30196078"
       color="#0099e5"
       opacity="0.14901961"
       empspacing="5"
       enabled="true"
       visible="false" /></sodipodi:namedview><path
     d="m 313.14568,162.977 c 4.07176,0 7.3774,-2.921 7.3774,-6.519 V 6.519 C 320.52308,2.921 317.21744,0 313.14568,0 H 10.349888 C 6.278117,0 2.972492,2.921 2.972492,6.519 v 149.939 c 0,3.598 3.305625,6.519 7.377396,6.519 z"
     style="fill:#2d2d2d;stroke-width:1.0638"
     id="path1" /><g
     id="g30"
     transform="translate(28.520049)"><path
       d="M 324.459,134.082 V 29.13 H 140.458 v 104.952 z"
       id="path2" /><path
       d="m 302.013,76.811 h 17.743 V 68.827 H 302.013 V 49 h 17.743 v -8.37 h -22.811 v -4.678 h 27.489 V 53.677 H 306.69 v 10.472 h 17.744 v 17.34 H 306.69 v 10.472 h 17.744 v 29.976 h -35.659 v -4.677 h 30.981 v -8.364 h -30.981 v -4.678 h 30.981 v -7.58 h -17.743 z"
       style="fill:#d09600"
       id="path3" /><g
       id="g29"><path
         d="m 144.27,35.464 h 140.55 v 61.951 h -22.337 v 31.241 H 144.27 Z"
         style="fill:#c7c7c7"
         id="path4" /><path
         d="m 268.666,51.568 h 7.201 v 3.571 h -0.85 v -2.917 h -2.205 v 2.731 h -0.845 v -2.731 h -2.451 v 3.031 h -0.85 z"
         style="fill-rule:nonzero"
         id="path19" /><path
         d="m 270.979,55.934 0.079,0.616 c -0.36,0.029 -0.656,0.097 -0.887,0.204 -0.23,0.107 -0.417,0.272 -0.56,0.497 -0.142,0.224 -0.213,0.477 -0.213,0.758 0,0.249 0.054,0.469 0.162,0.66 0.108,0.191 0.256,0.333 0.444,0.426 0.189,0.093 0.394,0.14 0.617,0.14 0.226,0 0.423,-0.045 0.592,-0.135 0.168,-0.09 0.31,-0.238 0.425,-0.445 0.075,-0.132 0.192,-0.425 0.351,-0.879 0.159,-0.453 0.309,-0.771 0.449,-0.953 0.18,-0.236 0.404,-0.412 0.671,-0.527 0.267,-0.116 0.566,-0.174 0.896,-0.174 0.364,0 0.704,0.071 1.02,0.212 0.316,0.142 0.555,0.349 0.719,0.62 0.164,0.272 0.246,0.574 0.246,0.906 0,0.366 -0.086,0.689 -0.258,0.969 -0.172,0.279 -0.425,0.494 -0.759,0.645 -0.334,0.15 -0.712,0.231 -1.135,0.242 L 273.77,59.09 c 0.455,-0.034 0.799,-0.148 1.031,-0.342 0.233,-0.194 0.349,-0.481 0.349,-0.861 0,-0.395 -0.106,-0.683 -0.317,-0.864 -0.211,-0.18 -0.466,-0.271 -0.764,-0.271 -0.259,0 -0.471,0.064 -0.638,0.192 -0.167,0.126 -0.338,0.454 -0.514,0.985 -0.175,0.532 -0.328,0.896 -0.459,1.094 -0.193,0.287 -0.438,0.499 -0.734,0.636 -0.297,0.137 -0.638,0.206 -1.025,0.206 -0.383,0 -0.744,-0.076 -1.083,-0.226 -0.339,-0.15 -0.602,-0.367 -0.79,-0.648 -0.189,-0.282 -0.283,-0.6 -0.283,-0.952 0,-0.447 0.095,-0.821 0.285,-1.123 0.19,-0.303 0.476,-0.539 0.857,-0.711 0.382,-0.172 0.813,-0.262 1.294,-0.271 z"
         style="fill-rule:nonzero"
         id="path20" /><path
         d="m 268.666,60.757 h 7.201 v 1.863 c 0,0.328 -0.023,0.578 -0.069,0.751 -0.059,0.243 -0.171,0.446 -0.336,0.61 -0.166,0.164 -0.397,0.296 -0.695,0.396 -0.298,0.1 -0.626,0.15 -0.983,0.15 -0.612,0 -1.13,-0.134 -1.554,-0.401 -0.424,-0.267 -0.636,-0.75 -0.636,-1.449 v -1.266 h -2.928 z m 3.777,0.654 v 1.276 c 0,0.423 0.115,0.722 0.344,0.9 0.229,0.177 0.552,0.266 0.968,0.266 0.301,0 0.559,-0.052 0.773,-0.157 0.215,-0.104 0.357,-0.242 0.425,-0.412 0.043,-0.11 0.064,-0.314 0.064,-0.61 v -1.263 z"
         style="fill-rule:nonzero"
         id="path21" /><path
         d="m 268.666,65.369 h 7.201 v 2.189 c 0,0.44 -0.065,0.775 -0.194,1.004 -0.129,0.229 -0.358,0.412 -0.685,0.549 -0.328,0.137 -0.69,0.206 -1.086,0.206 -0.511,0 -0.941,-0.114 -1.292,-0.341 -0.35,-0.226 -0.573,-0.577 -0.668,-1.051 -0.121,0.173 -0.24,0.305 -0.358,0.395 -0.256,0.19 -0.575,0.371 -0.958,0.542 l -1.96,0.859 v -0.822 l 1.498,-0.654 c 0.432,-0.19 0.763,-0.348 0.992,-0.471 0.23,-0.124 0.39,-0.234 0.482,-0.332 0.091,-0.098 0.155,-0.197 0.191,-0.298 0.023,-0.074 0.035,-0.195 0.035,-0.364 v -0.758 h -3.198 z m 4.023,0.653 v 1.405 c 0,0.299 0.045,0.532 0.135,0.701 0.09,0.168 0.234,0.296 0.432,0.384 0.198,0.087 0.414,0.131 0.646,0.131 0.341,0 0.621,-0.085 0.84,-0.254 0.22,-0.17 0.329,-0.438 0.329,-0.804 v -1.563 z"
         style="fill-rule:nonzero"
         id="path22" /><path
         d="m 268.666,70.354 h 7.201 v 3.571 h -0.85 v -2.917 h -2.205 v 2.732 h -0.845 v -2.732 h -2.451 v 3.031 h -0.85 z"
         style="fill-rule:nonzero"
         id="path23" /><path
         d="m 270.979,74.72 0.079,0.616 c -0.36,0.029 -0.656,0.097 -0.887,0.204 -0.23,0.107 -0.417,0.272 -0.56,0.497 -0.142,0.224 -0.213,0.477 -0.213,0.758 0,0.249 0.054,0.469 0.162,0.66 0.108,0.191 0.256,0.333 0.444,0.426 0.189,0.093 0.394,0.14 0.617,0.14 0.226,0 0.423,-0.045 0.592,-0.135 0.168,-0.09 0.31,-0.238 0.425,-0.445 0.075,-0.132 0.192,-0.425 0.351,-0.879 0.159,-0.453 0.309,-0.771 0.449,-0.953 0.18,-0.236 0.404,-0.411 0.671,-0.527 0.267,-0.116 0.566,-0.174 0.896,-0.174 0.364,0 0.704,0.071 1.02,0.213 0.316,0.141 0.555,0.348 0.719,0.619 0.164,0.272 0.246,0.574 0.246,0.907 0,0.366 -0.086,0.688 -0.258,0.968 -0.172,0.28 -0.425,0.495 -0.759,0.645 -0.334,0.15 -0.712,0.231 -1.135,0.243 l -0.068,-0.627 c 0.455,-0.034 0.799,-0.148 1.031,-0.342 0.233,-0.194 0.349,-0.481 0.349,-0.861 0,-0.395 -0.106,-0.683 -0.317,-0.864 -0.211,-0.18 -0.466,-0.271 -0.764,-0.271 -0.259,0 -0.471,0.064 -0.638,0.192 -0.167,0.126 -0.338,0.454 -0.514,0.986 -0.175,0.531 -0.328,0.895 -0.459,1.093 -0.193,0.287 -0.438,0.499 -0.734,0.636 -0.297,0.137 -0.638,0.206 -1.025,0.206 -0.383,0 -0.744,-0.075 -1.083,-0.226 -0.339,-0.15 -0.602,-0.367 -0.79,-0.648 -0.189,-0.282 -0.283,-0.599 -0.283,-0.952 0,-0.447 0.095,-0.821 0.285,-1.123 0.19,-0.302 0.476,-0.539 0.857,-0.711 0.382,-0.172 0.813,-0.262 1.294,-0.271 z"
         style="fill-rule:nonzero"
         id="path24" /><path
         d="m 270.979,79.321 0.079,0.617 c -0.36,0.029 -0.656,0.097 -0.887,0.203 -0.23,0.107 -0.417,0.273 -0.56,0.497 -0.142,0.225 -0.213,0.477 -0.213,0.758 0,0.249 0.054,0.469 0.162,0.66 0.108,0.191 0.256,0.333 0.444,0.426 0.189,0.094 0.394,0.14 0.617,0.14 0.226,0 0.423,-0.045 0.592,-0.134 0.168,-0.09 0.31,-0.239 0.425,-0.445 0.075,-0.133 0.192,-0.426 0.351,-0.879 0.159,-0.454 0.309,-0.772 0.449,-0.954 0.18,-0.235 0.404,-0.411 0.671,-0.527 0.267,-0.115 0.566,-0.173 0.896,-0.173 0.364,0 0.704,0.07 1.02,0.212 0.316,0.141 0.555,0.348 0.719,0.62 0.164,0.271 0.246,0.574 0.246,0.906 0,0.366 -0.086,0.689 -0.258,0.968 -0.172,0.28 -0.425,0.495 -0.759,0.645 -0.334,0.151 -0.712,0.232 -1.135,0.243 l -0.068,-0.627 c 0.455,-0.033 0.799,-0.147 1.031,-0.342 0.233,-0.194 0.349,-0.481 0.349,-0.86 0,-0.395 -0.106,-0.683 -0.317,-0.864 -0.211,-0.181 -0.466,-0.271 -0.764,-0.271 -0.259,0 -0.471,0.064 -0.638,0.192 -0.167,0.125 -0.338,0.454 -0.514,0.985 -0.175,0.531 -0.328,0.895 -0.459,1.093 -0.193,0.287 -0.438,0.5 -0.734,0.637 -0.297,0.137 -0.638,0.205 -1.025,0.205 -0.383,0 -0.744,-0.075 -1.083,-0.226 -0.339,-0.15 -0.602,-0.366 -0.79,-0.648 -0.189,-0.282 -0.283,-0.599 -0.283,-0.952 0,-0.446 0.095,-0.821 0.285,-1.123 0.19,-0.302 0.476,-0.539 0.857,-0.711 0.382,-0.172 0.813,-0.262 1.294,-0.271 z"
         style="fill-rule:nonzero"
         id="path25" /><path
         d="m 268.666,84.256 h 7.201 v 0.653 h -7.201 z"
         style="fill-rule:nonzero"
         id="path26" /><path
         d="m 268.666,86.095 h 7.201 v 3.332 h -0.85 v -2.678 h -2.23 v 2.317 h -0.85 v -2.317 h -3.271 z"
         style="fill-rule:nonzero"
         id="path27" /><path
         d="m 215.21,48.507 -0.561,1.525 c -1.825,-0.32 -3.217,-0.895 -4.176,-1.725 -0.958,-0.83 -1.437,-1.845 -1.437,-3.044 0,-1.241 0.368,-2.251 1.105,-3.028 0.737,-0.778 1.804,-1.37 3.202,-1.776 1.398,-0.406 2.898,-0.609 4.502,-0.609 1.749,0 3.275,0.229 4.577,0.688 1.302,0.458 2.291,1.11 2.967,1.956 0.676,0.846 1.014,1.777 1.014,2.793 0,1.152 -0.428,2.121 -1.283,2.906 -0.856,0.786 -2.059,1.333 -3.609,1.642 l -0.516,-1.5 c 1.222,-0.267 2.112,-0.655 2.67,-1.163 0.557,-0.508 0.836,-1.147 0.836,-1.917 0,-0.885 -0.309,-1.625 -0.928,-2.219 -0.619,-0.595 -1.449,-1.012 -2.492,-1.253 -1.042,-0.241 -2.117,-0.362 -3.224,-0.362 -1.429,0 -2.675,0.143 -3.741,0.429 -1.065,0.285 -1.861,0.729 -2.388,1.331 -0.527,0.602 -0.791,1.255 -0.791,1.956 0,0.854 0.359,1.577 1.077,2.169 0.718,0.591 1.783,0.992 3.196,1.201 z"
         style="fill-rule:nonzero"
         id="path28" /><path
         d="m 209.322,51.94 h 16.794 v 8.328 h -1.982 v -6.803 h -5.143 v 6.371 h -1.971 v -6.371 h -5.716 v 7.07 h -1.982 z"
         style="clip-rule:evenodd;fill-rule:nonzero;stroke-linejoin:round;stroke-miterlimit:2"
         id="path29" /><path
         d="m 51.357979,-249.88977 v -5.72656 h 4.140625 v 0.67578 h -3.382813 v 1.7539 h 3.167969 v 0.67188 h -3.167969 v 1.94922 h 3.515625 v 0.67578 z m 5.0625,-1.83984 0.714844,-0.0625 q 0.05078,0.42968 0.234375,0.70703 0.1875,0.27343 0.578125,0.44531 0.390625,0.16797 0.878906,0.16797 0.433594,0 0.765625,-0.12891 0.332031,-0.1289 0.492187,-0.35156 0.164063,-0.22656 0.164063,-0.49219 0,-0.26953 -0.15625,-0.46875 -0.15625,-0.20312 -0.515625,-0.33984 -0.230469,-0.0898 -1.019531,-0.27735 -0.789063,-0.1914 -1.105469,-0.35937 -0.410156,-0.21484 -0.613281,-0.53125 -0.199219,-0.32031 -0.199219,-0.71484 0,-0.4336 0.246094,-0.8086 0.246093,-0.3789 0.71875,-0.57422 0.472656,-0.19531 1.050781,-0.19531 0.636719,0 1.121094,0.20703 0.488281,0.20313 0.75,0.60156 0.261718,0.39844 0.28125,0.90235 l -0.726563,0.0547 q -0.05859,-0.54297 -0.398437,-0.82032 -0.335938,-0.27734 -0.996094,-0.27734 -0.6875,0 -1.003906,0.25391 -0.3125,0.25 -0.3125,0.60546 0,0.3086 0.222656,0.50782 0.21875,0.19922 1.140625,0.41015 0.925781,0.20703 1.269531,0.36328 0.5,0.23047 0.738281,0.58594 0.238282,0.35156 0.238282,0.8125 0,0.45703 -0.261719,0.86328 -0.261719,0.40235 -0.753906,0.62891 -0.488282,0.22266 -1.101563,0.22266 -0.777344,0 -1.304687,-0.22657 -0.523438,-0.22656 -0.824219,-0.67968 -0.296875,-0.45704 -0.3125,-1.03125 z m 5.59375,1.83984 v -5.72656 h 2.160156 q 0.570313,0 0.871094,0.0547 0.421875,0.0703 0.707031,0.26954 0.285156,0.19531 0.457031,0.55078 0.175782,0.35547 0.175782,0.78125 0,0.73047 -0.464844,1.23828 -0.464844,0.5039 -1.679688,0.5039 h -1.46875 v 2.32813 z m 0.757812,-3.00391 h 1.480469 q 0.734375,0 1.042969,-0.27343 0.308594,-0.27344 0.308594,-0.76954 0,-0.35937 -0.183594,-0.61328 -0.179688,-0.25781 -0.476563,-0.33984 -0.191406,-0.0508 -0.707031,-0.0508 h -1.464844 z m 4.296875,1.49219 0.703125,-0.0937 q 0.121094,0.59766 0.410157,0.86328 0.292968,0.26172 0.710937,0.26172 0.496094,0 0.835938,-0.34375 0.34375,-0.34375 0.34375,-0.85156 0,-0.48438 -0.316407,-0.79688 -0.316406,-0.3164 -0.804687,-0.3164 -0.199219,0 -0.496094,0.0781 l 0.07813,-0.61719 q 0.07031,0.008 0.113281,0.008 0.449219,0 0.808594,-0.23438 0.359375,-0.23437 0.359375,-0.72265 0,-0.38672 -0.261719,-0.64063 -0.261718,-0.25391 -0.675781,-0.25391 -0.410156,0 -0.683594,0.25782 -0.273437,0.25781 -0.351562,0.77343 l -0.703125,-0.125 q 0.128906,-0.70703 0.585937,-1.09375 0.457032,-0.39062 1.136719,-0.39062 0.46875,0 0.863281,0.20312 0.394532,0.19922 0.601563,0.54688 0.210937,0.34766 0.210937,0.73828 0,0.37109 -0.199218,0.67578 -0.199219,0.30469 -0.589844,0.48438 0.507812,0.11718 0.789062,0.48828 0.28125,0.36719 0.28125,0.92187 0,0.75 -0.546875,1.27344 -0.546875,0.51953 -1.382812,0.51953 -0.753906,0 -1.253906,-0.44922 -0.496094,-0.44922 -0.566407,-1.16406 z m 8.140625,0.83594 v 0.67578 h -3.785156 q -0.0078,-0.25391 0.08203,-0.48828 0.144532,-0.38672 0.460938,-0.76172 0.320312,-0.375 0.921875,-0.86719 0.933594,-0.76562 1.261719,-1.21094 0.328125,-0.44921 0.328125,-0.84765 0,-0.41797 -0.300782,-0.70313 -0.296875,-0.28906 -0.777343,-0.28906 -0.507813,0 -0.8125,0.30469 -0.304688,0.30469 -0.308594,0.84375 l -0.722656,-0.0742 q 0.07422,-0.80859 0.558593,-1.23047 0.484375,-0.42578 1.300782,-0.42578 0.824218,0 1.304687,0.45703 0.480469,0.45703 0.480469,1.13281 0,0.34375 -0.140625,0.67578 -0.140625,0.33204 -0.46875,0.69922 -0.324219,0.36719 -1.082031,1.00782 -0.632813,0.53125 -0.8125,0.72265 -0.179688,0.1875 -0.296875,0.37891 z m 0.675782,-1.04297 v -0.70703 h 2.160156 v 0.70703 z m 2.769531,-0.12109 0.714844,-0.0625 q 0.05078,0.42968 0.234375,0.70703 0.1875,0.27343 0.578125,0.44531 0.390625,0.16797 0.878906,0.16797 0.433594,0 0.765625,-0.12891 0.332031,-0.1289 0.492187,-0.35156 0.164063,-0.22656 0.164063,-0.49219 0,-0.26953 -0.15625,-0.46875 -0.15625,-0.20312 -0.515625,-0.33984 -0.230469,-0.0898 -1.019531,-0.27735 -0.789063,-0.1914 -1.105469,-0.35937 -0.410156,-0.21484 -0.613281,-0.53125 -0.199219,-0.32031 -0.199219,-0.71484 0,-0.4336 0.246094,-0.8086 0.246093,-0.3789 0.71875,-0.57422 0.472656,-0.19531 1.050781,-0.19531 0.636719,0 1.121094,0.20703 0.488281,0.20313 0.75,0.60156 0.261718,0.39844 0.28125,0.90235 l -0.726563,0.0547 q -0.05859,-0.54297 -0.398437,-0.82032 -0.335938,-0.27734 -0.996094,-0.27734 -0.6875,0 -1.003906,0.25391 -0.3125,0.25 -0.3125,0.60546 0,0.3086 0.222656,0.50782 0.21875,0.19922 1.140625,0.41015 0.925781,0.20703 1.269531,0.36328 0.5,0.23047 0.738281,0.58594 0.238282,0.35156 0.238282,0.8125 0,0.45703 -0.261719,0.86328 -0.261719,0.40235 -0.753906,0.62891 -0.488282,0.22266 -1.101563,0.22266 -0.777344,0 -1.304687,-0.22657 -0.523438,-0.22656 -0.824219,-0.67968 -0.296875,-0.45704 -0.3125,-1.03125 z m 9.003906,1.16406 v 0.67578 h -3.785156 q -0.0078,-0.25391 0.08203,-0.48828 0.144531,-0.38672 0.460938,-0.76172 0.320312,-0.375 0.921875,-0.86719 0.933593,-0.76562 1.261718,-1.21094 0.328125,-0.44921 0.328125,-0.84765 0,-0.41797 -0.300781,-0.70313 -0.296875,-0.28906 -0.777344,-0.28906 -0.507812,0 -0.8125,0.30469 -0.304687,0.30469 -0.308593,0.84375 l -0.722657,-0.0742 q 0.07422,-0.80859 0.558594,-1.23047 0.484375,-0.42578 1.300781,-0.42578 0.824219,0 1.304688,0.45703 0.480469,0.45703 0.480469,1.13281 0,0.34375 -0.140625,0.67578 -0.140625,0.33204 -0.46875,0.69922 -0.324219,0.36719 -1.082032,1.00782 -0.632812,0.53125 -0.8125,0.72265 -0.179687,0.1875 -0.296875,0.37891 z m 0.675781,-1.04297 v -0.70703 h 2.160157 v 0.70703 z m 3.003907,1.71875 v -5.72656 h 1.140625 l 1.355468,4.05468 q 0.1875,0.56641 0.273438,0.84766 0.09766,-0.3125 0.304687,-0.91797 l 1.371094,-3.98437 h 1.019531 v 5.72656 h -0.730468 v -4.79297 l -1.664063,4.79297 h -0.683594 l -1.65625,-4.875 v 4.875 z m 6.816406,0 v -5.72656 h 0.757812 v 5.72656 z m 2.085936,0 v -5.72656 h 0.77735 l 3.00781,4.49609 v -4.49609 h 0.72656 v 5.72656 h -0.77734 l -3.00782,-4.5 v 4.5 z m 5.91406,0 v -5.72656 h 0.75782 v 5.72656 z m 1.73047,-1.71875 v -0.70703 h 2.16016 v 0.70703 z m 5.39063,1.71875 h -0.70313 v -4.48047 q -0.2539,0.24219 -0.66797,0.48438 -0.41015,0.24218 -0.73828,0.36328 v -0.67969 q 0.58985,-0.27734 1.03125,-0.67188 0.44141,-0.39453 0.625,-0.76562 h 0.45313 z"
         id="text159"
         style="font-size:8px;font-family:Arial;-inkscape-font-specification:'Arial, Normal';clip-rule:evenodd;fill-rule:evenodd;stroke-linejoin:round;stroke-miterlimit:2"
         transform="rotate(90)"
         aria-label="ESP32-S2-MINI-1" /></g></g><g
     id="g31"
     transform="translate(28.520049)"><path
       id="3V"
       serif:id="3V"
       d="M 284.82,8.559 V 5.287 h -3.272 v 3.272 z"
       style="fill:#d09600"
       inkscape:label="3V" /><path
       id="P0"
       d="M 269.882,8.559 V 5.287 h -3.272 v 3.272 z"
       style="fill:#d09600"
       inkscape:label="P0" /><path
       id="P1"
       d="M 254.944,8.559 V 5.287 h -3.272 v 3.272 z"
       style="fill:#d09600"
       inkscape:label="P1" /><path
       id="P2"
       d="M 240.007,8.559 V 5.287 h -3.273 v 3.272 z"
       style="fill:#d09600"
       inkscape:label="P2" /><path
       id="P3"
       d="M 225.069,8.559 V 5.287 h -3.273 v 3.272 z"
       style="fill:#d09600"
       inkscape:label="P3" /><path
       id="P4"
       d="M 210.131,8.559 V 5.287 h -3.272 v 3.272 z"
       style="fill:#d09600"
       inkscape:label="P4" /><path
       id="P5"
       d="M 195.193,8.559 V 5.287 h -3.272 v 3.272 z"
       style="fill:#d09600"
       inkscape:label="P5" /><path
       id="P6"
       d="M 180.255,8.559 V 5.287 h -3.272 v 3.272 z"
       style="fill:#d09600"
       inkscape:label="P6" /><path
       id="P7"
       d="M 165.317,8.559 V 5.287 h -3.272 v 3.272 z"
       style="fill:#d09600"
       inkscape:label="P7" /><path
       id="P8"
       d="M 150.379,8.559 V 5.287 h -3.272 v 3.272 z"
       style="fill:#d09600"
       inkscape:label="P8" /><path
       id="P9"
       d="M 135.441,8.559 V 5.287 h -3.272 v 3.272 z"
       style="fill:#d09600"
       inkscape:label="P9" /><path
       id="P10"
       d="M 120.503,8.559 V 5.287 h -3.272 v 3.272 z"
       style="fill:#d09600"
       inkscape:label="P10" /><path
       id="P11"
       d="M 105.566,8.559 V 5.287 h -3.273 v 3.272 z"
       style="fill:#d09600"
       inkscape:label="P11" /><path
       id="P12"
       d="M 90.628,8.559 V 5.287 h -3.273 v 3.272 z"
       style="fill:#d09600"
       inkscape:label="P12" /><path
       id="P13"
       d="M 75.69,8.559 V 5.287 h -3.272 v 3.272 z"
       style="fill:#d09600" /><path
       id="P14"
       d="M 60.752,8.559 V 5.287 H 57.48 v 3.272 z"
       style="fill:#d09600"
       inkscape:label="P14" /><path
       id="P15"
       d="M 45.814,8.559 V 5.287 h -3.272 v 3.272 z"
       style="fill:#d09600"
       inkscape:label="P15" /><path
       id="P16"
       d="M 30.876,8.559 V 5.287 h -3.272 v 3.272 z"
       style="fill:#d09600"
       inkscape:label="P16" /><path
       id="P17"
       d="M 15.938,8.559 V 5.287 h -3.272 v 3.272 z"
       style="fill:#d09600"
       inkscape:label="P17" /><path
       id="5V"
       d="M 1,8.559 V 5.287 h -3.272 v 3.272 z"
       style="fill:#d09600"
       inkscape:label="5V" /><path
       id="GND"
       serif:id="5V"
       d="M -13.938,8.559 V 5.287 h -3.272 v 3.272 z"
       style="fill:#d09600;fill-opacity:0.5"
       inkscape:label="GND" /></g><g
     id="g32"
     transform="translate(28.520049)"><path
       id="GND1"
       d="m 285.101,157.776 v -3.272 h -3.272 v 3.272 z"
       style="fill:#7e6116;fill-opacity:1"
       inkscape:label="GND1" /><path
       id="EN"
       d="m 270.163,157.776 v -3.272 h -3.272 v 3.272 z"
       style="fill:#d09600"
       inkscape:label="EN" /><path
       id="P46"
       d="m 255.225,157.776 v -3.272 h -3.272 v 3.272 z"
       style="fill:#d09600"
       inkscape:label="P46" /><path
       id="P45"
       d="m 240.287,157.776 v -3.272 h -3.272 v 3.272 z"
       style="fill:#d09600"
       inkscape:label="P45" /><path
       id="RX"
       d="m 225.349,157.776 v -3.272 h -3.272 v 3.272 z"
       style="fill:#d09600" /><path
       id="TX"
       d="m 210.412,157.776 v -3.272 h -3.273 v 3.272 z"
       style="fill:#d09600"
       inkscape:label="TX" /><path
       id="P42"
       d="m 195.474,157.776 v -3.272 h -3.272 v 3.272 z"
       style="fill:#d09600"
       inkscape:label="P42" /><path
       id="P41"
       d="m 180.536,157.776 v -3.272 h -3.272 v 3.272 z"
       style="fill:#d09600"
       inkscape:label="P41" /><path
       id="P40"
       d="m 165.598,157.776 v -3.272 h -3.272 v 3.272 z"
       style="fill:#d09600"
       inkscape:label="P40" /><path
       id="P39"
       d="m 150.66,157.776 v -3.272 h -3.272 v 3.272 z"
       style="fill:#d09600"
       inkscape:label="P39" /><path
       id="P38"
       d="m 135.722,157.776 v -3.272 h -3.272 v 3.272 z"
       style="fill:#d09600"
       inkscape:label="P38" /><path
       id="P37"
       d="m 120.784,157.776 v -3.272 h -3.272 v 3.272 z"
       style="fill:#d09600"
       inkscape:label="P37" /><path
       id="P36"
       d="m 105.846,157.776 v -3.272 h -3.272 v 3.272 z"
       style="fill:#d09600"
       inkscape:label="P36" /><path
       id="P35"
       d="m 90.909,157.776 v -3.272 h -3.273 v 3.272 z"
       style="fill:#d09600"
       inkscape:label="P35" /><path
       id="P34"
       d="m 75.971,157.776 v -3.272 h -3.273 v 3.272 z"
       style="fill:#d09600"
       inkscape:label="P34" /><path
       id="P33"
       d="m 61.033,157.776 v -3.272 h -3.272 v 3.272 z"
       style="fill:#d09600"
       inkscape:label="P33" /><path
       id="P26"
       d="m 46.095,157.776 v -3.272 h -3.272 v 3.272 z"
       style="fill:#d09600"
       inkscape:label="P26" /><path
       id="P21"
       d="m 31.157,157.776 v -3.272 h -3.272 v 3.272 z"
       style="fill:#d09600"
       inkscape:label="P21" /><path
       id="P20"
       d="m 16.219,157.776 v -3.272 h -3.272 v 3.272 z"
       style="fill:#d09600"
       inkscape:label="P20" /><path
       id="P19"
       d="m 1.281,157.776 v -3.272 h -3.272 v 3.272 z"
       style="fill:#d09600"
       inkscape:label="P19" /><path
       id="P18"
       d="m -13.657,157.776 v -3.272 h -3.272 v 3.272 z"
       style="fill:#d09600"
       inkscape:label="P18" /><path
       d="m -16.738188,150.97031 h -1.097656 v -4.13672 q -0.601563,0.5625 -1.417969,0.83203 v -0.99609 q 0.429688,-0.14063 0.933594,-0.53125 0.503906,-0.39454 0.691406,-0.91797 h 0.890625 z m 2.582031,-3.08985 q -0.425781,-0.17968 -0.621093,-0.49218 -0.191407,-0.31641 -0.191407,-0.69141 0,-0.64063 0.445313,-1.05859 0.449219,-0.41797 1.273437,-0.41797 0.816407,0 1.265625,0.41797 0.453125,0.41796 0.453125,1.05859 0,0.39844 -0.207031,0.71094 -0.207031,0.30859 -0.582031,0.47265 0.476562,0.19141 0.722656,0.5586 0.25,0.36718 0.25,0.84765 0,0.79297 -0.507812,1.28907 -0.503907,0.49609 -1.34375,0.49609 -0.78125,0 -1.300782,-0.41016 -0.613281,-0.48437 -0.613281,-1.32812 0,-0.46485 0.230469,-0.85156 0.230469,-0.39063 0.726562,-0.60157 z m 0.226563,-1.10547 q 0,0.32813 0.183594,0.51172 0.1875,0.1836 0.496093,0.1836 0.3125,0 0.5,-0.1836 0.1875,-0.1875 0.1875,-0.51562 0,-0.3086 -0.1875,-0.49219 -0.183593,-0.1875 -0.488281,-0.1875 -0.316406,0 -0.503906,0.1875 -0.1875,0.1875 -0.1875,0.49609 z m -0.101563,2.45313 q 0,0.45312 0.230469,0.70703 0.234375,0.25391 0.582031,0.25391 0.339844,0 0.5625,-0.24219 0.222657,-0.24609 0.222657,-0.70703 0,-0.40235 -0.226563,-0.64453 -0.226562,-0.2461 -0.574219,-0.2461 -0.402343,0 -0.601562,0.27735 -0.195313,0.27734 -0.195313,0.60156 z m 12.8593755,1.74219 h -1.0976563 v -4.13672 q -0.6015625,0.5625 -1.4179687,0.83203 v -0.99609 q 0.4296875,-0.14063 0.9335937,-0.53125 0.5039063,-0.39454 0.6914063,-0.91797 h 0.890625 z M 0.49228096,149.64609 1.554781,149.5289 q 0.039063,0.32422 0.203125,0.48047 0.1640625,0.15625 0.4335937,0.15625 0.3398438,0 0.578125,-0.3125 0.2382813,-0.3125 0.3046875,-1.29688 -0.4140625,0.48047 -1.0351562,0.48047 -0.6757813,0 -1.16796879,-0.51953 -0.48828125,-0.52344 -0.48828125,-1.35937 0,-0.8711 0.515625,-1.40235 0.51953124,-0.53515 1.32031254,-0.53515 0.8710937,0 1.4296875,0.67578 0.5585937,0.67187 0.5585937,2.21484 0,1.57031 -0.5820312,2.26563 -0.5820313,0.69531 -1.515625,0.69531 -0.671875,0 -1.0859375,-0.35547 -0.41406254,-0.35937 -0.53125004,-1.07031 z M 2.976656,147.24765 q 0,-0.53125 -0.2460938,-0.82422 -0.2421875,-0.29297 -0.5625,-0.29297 -0.3046875,0 -0.5078125,0.24219 -0.1992187,0.23828 -0.1992187,0.78516 0,0.55468 0.21875,0.8164 0.21875,0.25782 0.546875,0.25782 0.3164062,0 0.53125,-0.25 0.21875,-0.25 0.21875,-0.73438 z m 12.316406,2.70313 v 1.01953 h -3.847656 q 0.0625,-0.57813 0.375,-1.09375 0.3125,-0.51953 1.234375,-1.375 0.742187,-0.69141 0.910156,-0.9375 0.226563,-0.33985 0.226563,-0.67188 0,-0.36719 -0.199219,-0.5625 -0.195313,-0.19922 -0.542969,-0.19922 -0.34375,0 -0.546875,0.20703 -0.203125,0.20704 -0.234375,0.6875 l -1.09375,-0.10937 q 0.09766,-0.90625 0.613281,-1.30078 0.515625,-0.39453 1.289063,-0.39453 0.847656,0 1.332031,0.45703 0.484375,0.45703 0.484375,1.13672 0,0.38672 -0.140625,0.73828 -0.136719,0.34765 -0.4375,0.73047 -0.199219,0.2539 -0.71875,0.73047 -0.519531,0.47656 -0.660156,0.63281 -0.136719,0.15625 -0.222656,0.30469 z m 2.597656,-4.73047 q 0.832032,0 1.300782,0.59375 0.558593,0.70312 0.558593,2.33203 0,1.625 -0.5625,2.33594 -0.464843,0.58593 -1.296875,0.58593 -0.835937,0 -1.347656,-0.64062 -0.511719,-0.64453 -0.511719,-2.29297 0,-1.61719 0.5625,-2.32813 0.464844,-0.58593 1.296875,-0.58593 z m 0,0.91015 q -0.199218,0 -0.355468,0.12891 -0.15625,0.125 -0.242188,0.45312 -0.113281,0.42579 -0.113281,1.4336 0,1.00781 0.101562,1.38672 0.101563,0.375 0.253907,0.5 0.15625,0.125 0.355468,0.125 0.199219,0 0.355469,-0.125 0.15625,-0.12891 0.242188,-0.45703 0.113281,-0.42188 0.113281,-1.42969 0,-1.00781 -0.101563,-1.38281 -0.101562,-0.37891 -0.257812,-0.50391 -0.152344,-0.12891 -0.351563,-0.12891 z m 10.746094,3.82032 v 1.01953 h -3.847656 q 0.0625,-0.57813 0.375,-1.09375 0.3125,-0.51953 1.234375,-1.375 0.742187,-0.69141 0.910156,-0.9375 0.226563,-0.33985 0.226563,-0.67188 0,-0.36719 -0.199219,-0.5625 -0.195313,-0.19922 -0.542969,-0.19922 -0.34375,0 -0.546875,0.20703 -0.203125,0.20704 -0.234375,0.6875 l -1.09375,-0.10937 q 0.09766,-0.90625 0.613281,-1.30078 0.515625,-0.39453 1.289063,-0.39453 0.847656,0 1.332031,0.45703 0.484375,0.45703 0.484375,1.13672 0,0.38672 -0.140625,0.73828 -0.136719,0.34765 -0.4375,0.73047 -0.199219,0.2539 -0.71875,0.73047 -0.519531,0.47656 -0.660156,0.63281 -0.136719,0.15625 -0.222656,0.30469 z m 3.550781,1.01953 h -1.097656 v -4.13672 q -0.601562,0.5625 -1.417969,0.83203 v -0.99609 q 0.429688,-0.14063 0.933594,-0.53125 0.503906,-0.39454 0.691406,-0.91797 h 0.890625 z m 12.015625,-1.01953 v 1.01953 h -3.847656 q 0.0625,-0.57813 0.375,-1.09375 0.3125,-0.51953 1.234375,-1.375 0.742188,-0.69141 0.910156,-0.9375 0.226563,-0.33985 0.226563,-0.67188 0,-0.36719 -0.199219,-0.5625 -0.195312,-0.19922 -0.542969,-0.19922 -0.34375,0 -0.546875,0.20703 -0.203125,0.20704 -0.234375,0.6875 l -1.09375,-0.10937 q 0.09766,-0.90625 0.613282,-1.30078 0.515625,-0.39453 1.289062,-0.39453 0.847656,0 1.332031,0.45703 0.484375,0.45703 0.484375,1.13672 0,0.38672 -0.140625,0.73828 -0.136718,0.34765 -0.4375,0.73047 -0.199218,0.2539 -0.71875,0.73047 -0.519531,0.47656 -0.660156,0.63281 -0.136719,0.15625 -0.222656,0.30469 z m 4.460938,-3.30469 -1.0625,0.11719 q -0.03906,-0.32813 -0.203125,-0.48438 -0.164063,-0.15625 -0.425781,-0.15625 -0.347657,0 -0.589844,0.3125 -0.238281,0.3125 -0.300781,1.30078 0.410156,-0.48437 1.019531,-0.48437 0.6875,0 1.175781,0.52343 0.492188,0.52344 0.492188,1.35157 0,0.8789 -0.515625,1.41015 -0.515625,0.53125 -1.324219,0.53125 -0.867188,0 -1.425781,-0.67187 -0.558594,-0.67578 -0.558594,-2.21094 0,-1.57422 0.582031,-2.26953 0.582031,-0.69531 1.511719,-0.69531 0.652344,0 1.078125,0.36718 0.429687,0.36329 0.546875,1.0586 z m -2.488281,2.39453 q 0,0.53516 0.246093,0.82812 0.246094,0.28907 0.5625,0.28907 0.304688,0 0.507813,-0.23828 0.203125,-0.23829 0.203125,-0.78125 0,-0.5586 -0.21875,-0.81641 -0.21875,-0.26172 -0.546875,-0.26172 -0.316406,0 -0.535156,0.25 -0.21875,0.24609 -0.21875,0.73047 z m 9.847656,0.41016 1.0625,-0.12891 q 0.05078,0.40625 0.273437,0.62109 0.222657,0.21485 0.539063,0.21485 0.339844,0 0.570312,-0.25782 0.234375,-0.25781 0.234375,-0.69531 0,-0.41406 -0.222656,-0.65625 -0.222656,-0.24219 -0.542969,-0.24219 -0.210937,0 -0.503906,0.082 l 0.121094,-0.89454 q 0.445312,0.0117 0.679687,-0.1914 0.234375,-0.20703 0.234375,-0.54688 0,-0.28906 -0.171875,-0.46093 -0.171875,-0.17188 -0.457031,-0.17188 -0.28125,0 -0.480469,0.19531 -0.199218,0.19532 -0.242187,0.57032 l -1.011719,-0.17188 q 0.105469,-0.51953 0.316406,-0.82812 0.214844,-0.3125 0.59375,-0.48829 0.382813,-0.17968 0.855469,-0.17968 0.808594,0 1.296875,0.51562 0.402344,0.42188 0.402344,0.95313 0,0.7539 -0.824219,1.20312 0.492188,0.10547 0.785156,0.47266 0.296875,0.36719 0.296875,0.88672 0,0.7539 -0.550781,1.28515 -0.550781,0.53125 -1.371094,0.53125 -0.777343,0 -1.289062,-0.44531 -0.511719,-0.44922 -0.59375,-1.17187 z m 4.449219,0 1.0625,-0.12891 q 0.05078,0.40625 0.273437,0.62109 0.222656,0.21485 0.539063,0.21485 0.339843,0 0.570312,-0.25782 0.234375,-0.25781 0.234375,-0.69531 0,-0.41406 -0.222656,-0.65625 -0.222656,-0.24219 -0.542969,-0.24219 -0.210937,0 -0.503906,0.082 L 62.004,147.49374 q 0.445312,0.0117 0.679687,-0.1914 0.234375,-0.20703 0.234375,-0.54688 0,-0.28906 -0.171875,-0.46093 -0.171875,-0.17188 -0.457031,-0.17188 -0.28125,0 -0.480469,0.19531 -0.199219,0.19532 -0.242187,0.57032 l -1.011719,-0.17188 q 0.105469,-0.51953 0.316406,-0.82812 0.214844,-0.3125 0.59375,-0.48829 0.382813,-0.17968 0.855469,-0.17968 0.808594,0 1.296875,0.51562 0.402344,0.42188 0.402344,0.95313 0,0.7539 -0.824219,1.20312 0.492187,0.10547 0.785156,0.47266 0.296875,0.36719 0.296875,0.88672 0,0.7539 -0.550781,1.28515 -0.550781,0.53125 -1.371094,0.53125 -0.777344,0 -1.289062,-0.44531 -0.511719,-0.44922 -0.59375,-1.17187 z m 8.894531,0 1.0625,-0.12891 q 0.05078,0.40625 0.273437,0.62109 0.222657,0.21485 0.539063,0.21485 0.339844,0 0.570312,-0.25782 0.234375,-0.25781 0.234375,-0.69531 0,-0.41406 -0.222656,-0.65625 -0.222656,-0.24219 -0.542969,-0.24219 -0.210937,0 -0.503906,0.082 l 0.121094,-0.89454 q 0.445312,0.0117 0.679687,-0.1914 0.234375,-0.20703 0.234375,-0.54688 0,-0.28906 -0.171875,-0.46093 -0.171875,-0.17188 -0.457031,-0.17188 -0.28125,0 -0.480469,0.19531 -0.199218,0.19532 -0.242187,0.57032 l -1.011719,-0.17188 q 0.105469,-0.51953 0.316406,-0.82812 0.214844,-0.3125 0.59375,-0.48829 0.382813,-0.17968 0.855469,-0.17968 0.808594,0 1.296875,0.51562 0.402344,0.42188 0.402344,0.95313 0,0.7539 -0.824219,1.20312 0.492188,0.10547 0.785156,0.47266 0.296875,0.36719 0.296875,0.88672 0,0.7539 -0.550781,1.28515 -0.550781,0.53125 -1.371094,0.53125 -0.777343,0 -1.289062,-0.44531 -0.511719,-0.44922 -0.59375,-1.17187 z m 6.640625,1.51953 v -1.15235 h -2.34375 v -0.96093 l 2.484375,-3.63672 h 0.921875 v 3.63281 h 0.710937 v 0.96484 h -0.710937 v 1.15235 z m 0,-2.11719 v -1.95703 l -1.316406,1.95703 z m 8.925781,0.59766 1.0625,-0.12891 q 0.05078,0.40625 0.273438,0.62109 0.222656,0.21485 0.539062,0.21485 0.339844,0 0.570313,-0.25782 0.234375,-0.25781 0.234375,-0.69531 0,-0.41406 -0.222657,-0.65625 -0.222656,-0.24219 -0.542968,-0.24219 -0.210938,0 -0.503907,0.082 l 0.121094,-0.89454 q 0.445313,0.0117 0.679688,-0.1914 0.234375,-0.20703 0.234375,-0.54688 0,-0.28906 -0.171875,-0.46093 -0.171875,-0.17188 -0.457032,-0.17188 -0.28125,0 -0.480468,0.19531 -0.199219,0.19532 -0.242188,0.57032 l -1.011719,-0.17188 q 0.105469,-0.51953 0.316407,-0.82812 0.214843,-0.3125 0.59375,-0.48829 0.382812,-0.17968 0.855468,-0.17968 0.808594,0 1.296875,0.51562 0.402344,0.42188 0.402344,0.95313 0,0.7539 -0.824219,1.20312 0.492188,0.10547 0.785157,0.47266 0.296875,0.36719 0.296875,0.88672 0,0.7539 -0.550782,1.28515 -0.550781,0.53125 -1.371093,0.53125 -0.777344,0 -1.289063,-0.44531 -0.511719,-0.44922 -0.59375,-1.17187 z m 4.503906,0.0469 1.09375,-0.11328 q 0.04687,0.37109 0.277344,0.58984 0.230469,0.21485 0.53125,0.21485 0.34375,0 0.582031,-0.27735 0.238282,-0.28125 0.238282,-0.84375 0,-0.52734 -0.238282,-0.78906 -0.234375,-0.26562 -0.613281,-0.26562 -0.472656,0 -0.847656,0.41796 l -0.890625,-0.1289 0.5625,-2.98047 h 2.902344 v 1.02734 h -2.070313 l -0.171875,0.97266 q 0.367188,-0.18359 0.75,-0.18359 0.730469,0 1.238281,0.53125 0.507813,0.53125 0.507813,1.3789 0,0.70703 -0.410156,1.26172 -0.558594,0.75781 -1.550782,0.75781 -0.792968,0 -1.292968,-0.42578 -0.5,-0.42578 -0.597657,-1.14453 z m 11.062497,-0.0469 1.0625,-0.12891 q 0.0508,0.40625 0.27344,0.62109 0.22266,0.21485 0.53906,0.21485 0.33985,0 0.57032,-0.25782 0.23437,-0.25781 0.23437,-0.69531 0,-0.41406 -0.22266,-0.65625 -0.22265,-0.24219 -0.54296,-0.24219 -0.21094,0 -0.50391,0.082 l 0.12109,-0.89454 q 0.44532,0.0117 0.67969,-0.1914 0.23438,-0.20703 0.23438,-0.54688 0,-0.28906 -0.17188,-0.46093 -0.17187,-0.17188 -0.45703,-0.17188 -0.28125,0 -0.48047,0.19531 -0.19922,0.19532 -0.24219,0.57032 l -1.01172,-0.17188 q 0.10547,-0.51953 0.31641,-0.82812 0.21484,-0.3125 0.59375,-0.48829 0.38281,-0.17968 0.85547,-0.17968 0.80859,0 1.29687,0.51562 0.40235,0.42188 0.40235,0.95313 0,0.7539 -0.82422,1.20312 0.49219,0.10547 0.78516,0.47266 0.29687,0.36719 0.29687,0.88672 0,0.7539 -0.55078,1.28515 -0.55078,0.53125 -1.37109,0.53125 -0.77735,0 -1.28907,-0.44531 -0.51172,-0.44922 -0.59375,-1.17187 z m 8.20703,-2.80469 -1.0625,0.11719 q -0.0391,-0.32813 -0.20312,-0.48438 -0.16406,-0.15625 -0.42578,-0.15625 -0.34766,0 -0.58985,0.3125 -0.23828,0.3125 -0.30078,1.30078 0.41016,-0.48437 1.01953,-0.48437 0.6875,0 1.17579,0.52343 0.49218,0.52344 0.49218,1.35157 0,0.8789 -0.51562,1.41015 -0.51563,0.53125 -1.32422,0.53125 -0.86719,0 -1.42578,-0.67187 -0.5586,-0.67578 -0.5586,-2.21094 0,-1.57422 0.58204,-2.26953 0.58203,-0.69531 1.51171,-0.69531 0.65235,0 1.07813,0.36718 0.42969,0.36329 0.54687,1.0586 z m -2.48828,2.39453 q 0,0.53516 0.2461,0.82812 0.24609,0.28907 0.5625,0.28907 0.30468,0 0.50781,-0.23828 0.20312,-0.23829 0.20312,-0.78125 0,-0.5586 -0.21875,-0.81641 -0.21875,-0.26172 -0.54687,-0.26172 -0.31641,0 -0.53516,0.25 -0.21875,0.24609 -0.21875,0.73047 z m 9.84766,0.41016 1.0625,-0.12891 q 0.0508,0.40625 0.27344,0.62109 0.22265,0.21485 0.53906,0.21485 0.33984,0 0.57031,-0.25782 0.23438,-0.25781 0.23438,-0.69531 0,-0.41406 -0.22266,-0.65625 -0.22266,-0.24219 -0.54297,-0.24219 -0.21094,0 -0.5039,0.082 l 0.12109,-0.89454 q 0.44531,0.0117 0.67969,-0.1914 0.23437,-0.20703 0.23437,-0.54688 0,-0.28906 -0.17187,-0.46093 -0.17188,-0.17188 -0.45703,-0.17188 -0.28125,0 -0.48047,0.19531 -0.19922,0.19532 -0.24219,0.57032 l -1.01172,-0.17188 q 0.10547,-0.51953 0.31641,-0.82812 0.21484,-0.3125 0.59375,-0.48829 0.38281,-0.17968 0.85547,-0.17968 0.80859,0 1.29687,0.51562 0.40234,0.42188 0.40234,0.95313 0,0.7539 -0.82421,1.20312 0.49218,0.10547 0.78515,0.47266 0.29688,0.36719 0.29688,0.88672 0,0.7539 -0.55078,1.28515 -0.55079,0.53125 -1.3711,0.53125 -0.77734,0 -1.28906,-0.44531 -0.51172,-0.44922 -0.59375,-1.17187 z m 4.48828,-3.10938 v -1.01953 h 3.75391 v 0.79687 q -0.46485,0.45704 -0.94532,1.3125 -0.48046,0.85547 -0.73437,1.82032 -0.25,0.96093 -0.24609,1.71875 h -1.0586 q 0.0273,-1.1875 0.48828,-2.42188 0.46485,-1.23437 1.23828,-2.20703 z m 8.85547,3.10938 1.0625,-0.12891 q 0.0508,0.40625 0.27344,0.62109 0.22265,0.21485 0.53906,0.21485 0.33984,0 0.57031,-0.25782 0.23438,-0.25781 0.23438,-0.69531 0,-0.41406 -0.22266,-0.65625 -0.22266,-0.24219 -0.54297,-0.24219 -0.21094,0 -0.5039,0.082 l 0.12109,-0.89454 q 0.44531,0.0117 0.67969,-0.1914 0.23437,-0.20703 0.23437,-0.54688 0,-0.28906 -0.17187,-0.46093 -0.17188,-0.17188 -0.45703,-0.17188 -0.28125,0 -0.48047,0.19531 -0.19922,0.19532 -0.24219,0.57032 l -1.01172,-0.17188 q 0.10547,-0.51953 0.31641,-0.82812 0.21484,-0.3125 0.59375,-0.48829 0.38281,-0.17968 0.85547,-0.17968 0.80859,0 1.29687,0.51562 0.40234,0.42188 0.40234,0.95313 0,0.7539 -0.82421,1.20312 0.49218,0.10547 0.78515,0.47266 0.29688,0.36719 0.29688,0.88672 0,0.7539 -0.55078,1.28515 -0.55079,0.53125 -1.3711,0.53125 -0.77734,0 -1.28906,-0.44531 -0.51172,-0.44922 -0.59375,-1.17187 z m 5.42969,-1.57032 q -0.42578,-0.17968 -0.6211,-0.49218 -0.1914,-0.31641 -0.1914,-0.69141 0,-0.64063 0.44531,-1.05859 0.44922,-0.41797 1.27344,-0.41797 0.8164,0 1.26562,0.41797 0.45313,0.41796 0.45313,1.05859 0,0.39844 -0.20703,0.71094 -0.20704,0.30859 -0.58204,0.47265 0.47657,0.19141 0.72266,0.5586 0.25,0.36718 0.25,0.84765 0,0.79297 -0.50781,1.28907 -0.50391,0.49609 -1.34375,0.49609 -0.78125,0 -1.30078,-0.41016 -0.61328,-0.48437 -0.61328,-1.32812 0,-0.46485 0.23046,-0.85156 0.23047,-0.39063 0.72657,-0.60157 z m 0.22656,-1.10547 q 0,0.32813 0.18359,0.51172 0.1875,0.1836 0.4961,0.1836 0.3125,0 0.5,-0.1836 0.1875,-0.1875 0.1875,-0.51562 0,-0.3086 -0.1875,-0.49219 -0.1836,-0.1875 -0.48828,-0.1875 -0.31641,0 -0.50391,0.1875 -0.1875,0.1875 -0.1875,0.49609 z m -0.10156,2.45313 q 0,0.45312 0.23047,0.70703 0.23437,0.25391 0.58203,0.25391 0.33984,0 0.5625,-0.24219 0.22265,-0.24609 0.22265,-0.70703 0,-0.40235 -0.22656,-0.64453 -0.22656,-0.2461 -0.57422,-0.2461 -0.40234,0 -0.60156,0.27735 -0.19531,0.27734 -0.19531,0.60156 z m 10.01172,0.22266 1.0625,-0.12891 q 0.0508,0.40625 0.27343,0.62109 0.22266,0.21485 0.53907,0.21485 0.33984,0 0.57031,-0.25782 0.23437,-0.25781 0.23437,-0.69531 0,-0.41406 -0.22265,-0.65625 -0.22266,-0.24219 -0.54297,-0.24219 -0.21094,0 -0.50391,0.082 l 0.1211,-0.89454 q 0.44531,0.0117 0.67968,-0.1914 0.23438,-0.20703 0.23438,-0.54688 0,-0.28906 -0.17188,-0.46093 -0.17187,-0.17188 -0.45703,-0.17188 -0.28125,0 -0.48047,0.19531 -0.19922,0.19532 -0.24218,0.57032 l -1.01172,-0.17188 q 0.10547,-0.51953 0.3164,-0.82812 0.21485,-0.3125 0.59375,-0.48829 0.38282,-0.17968 0.85547,-0.17968 0.8086,0 1.29688,0.51562 0.40234,0.42188 0.40234,0.95313 0,0.7539 -0.82422,1.20312 0.49219,0.10547 0.78516,0.47266 0.29687,0.36719 0.29687,0.88672 0,0.7539 -0.55078,1.28515 -0.55078,0.53125 -1.37109,0.53125 -0.77735,0 -1.28906,-0.44531 -0.51172,-0.44922 -0.59375,-1.17187 z m 4.51171,0.19531 1.0625,-0.11719 q 0.0391,0.32422 0.20313,0.48047 0.16406,0.15625 0.43359,0.15625 0.33985,0 0.57813,-0.3125 0.23828,-0.3125 0.30469,-1.29688 -0.41407,0.48047 -1.03516,0.48047 -0.67578,0 -1.16797,-0.51953 -0.48828,-0.52344 -0.48828,-1.35937 0,-0.8711 0.51562,-1.40235 0.51954,-0.53515 1.32032,-0.53515 0.87109,0 1.42968,0.67578 0.5586,0.67187 0.5586,2.21484 0,1.57031 -0.58203,2.26563 -0.58203,0.69531 -1.51563,0.69531 -0.67187,0 -1.08594,-0.35547 -0.41406,-0.35937 -0.53125,-1.07031 z m 2.48438,-2.39844 q 0,-0.53125 -0.24609,-0.82422 -0.24219,-0.29297 -0.5625,-0.29297 -0.30469,0 -0.50782,0.24219 -0.19922,0.23828 -0.19922,0.78516 0,0.55468 0.21875,0.8164 0.21875,0.25782 0.54688,0.25782 0.31641,0 0.53125,-0.25 0.21875,-0.25 0.21875,-0.73438 z m 8.53906,3.72266 v -1.15235 h -2.34375 v -0.96093 l 2.48438,-3.63672 h 0.92187 v 3.63281 h 0.71094 v 0.96484 h -0.71094 v 1.15235 z m 0,-2.11719 v -1.95703 l -1.3164,1.95703 z m 4.15235,-3.63281 q 0.83203,0 1.30078,0.59375 0.55859,0.70312 0.55859,2.33203 0,1.625 -0.5625,2.33594 -0.46484,0.58593 -1.29687,0.58593 -0.83594,0 -1.34766,-0.64062 -0.51172,-0.64453 -0.51172,-2.29297 0,-1.61719 0.5625,-2.32813 0.46484,-0.58593 1.29688,-0.58593 z m 0,0.91015 q -0.19922,0 -0.35547,0.12891 -0.15625,0.125 -0.24219,0.45312 -0.11328,0.42579 -0.11328,1.4336 0,1.00781 0.10156,1.38672 0.10156,0.375 0.25391,0.5 0.15625,0.125 0.35547,0.125 0.19921,0 0.35546,-0.125 0.15625,-0.12891 0.24219,-0.45703 0.11328,-0.42188 0.11328,-1.42969 0,-1.00781 -0.10156,-1.38281 -0.10156,-0.37891 -0.25781,-0.50391 -0.15235,-0.12891 -0.35156,-0.12891 z m 11.41406,4.83985 v -1.15235 h -2.34375 v -0.96093 l 2.48437,-3.63672 h 0.92188 v 3.63281 h 0.71094 v 0.96484 h -0.71094 v 1.15235 z m 0,-2.11719 v -1.95703 l -1.31641,1.95703 z m 5.10547,2.11719 h -1.09766 v -4.13672 q -0.60156,0.5625 -1.41797,0.83203 v -0.99609 q 0.42969,-0.14063 0.9336,-0.53125 0.5039,-0.39454 0.6914,-0.91797 h 0.89063 z m 10.46093,0 v -1.15235 h -2.34375 v -0.96093 l 2.48438,-3.63672 h 0.92187 v 3.63281 h 0.71094 v 0.96484 h -0.71094 v 1.15235 z m 0,-2.11719 v -1.95703 l -1.3164,1.95703 z m 6.00391,1.09766 v 1.01953 h -3.84766 q 0.0625,-0.57813 0.375,-1.09375 0.3125,-0.51953 1.23438,-1.375 0.74219,-0.69141 0.91016,-0.9375 0.22656,-0.33985 0.22656,-0.67188 0,-0.36719 -0.19922,-0.5625 -0.19531,-0.19922 -0.54297,-0.19922 -0.34375,0 -0.54687,0.20703 -0.20313,0.20704 -0.23438,0.6875 l -1.09375,-0.10937 q 0.0977,-0.90625 0.61328,-1.30078 0.51563,-0.39453 1.28906,-0.39453 0.84766,0 1.33204,0.45703 0.48437,0.45703 0.48437,1.13672 0,0.38672 -0.14062,0.73828 -0.13672,0.34765 -0.4375,0.73047 -0.19922,0.2539 -0.71875,0.73047 -0.51954,0.47656 -0.66016,0.63281 -0.13672,0.15625 -0.22266,0.30469 z m 6.71875,1.01953 v -4.75782 h -1.69922 v -0.96875 h 4.55078 v 0.96875 h -1.69531 v 4.75782 z m 3.01563,0 1.95703,-2.98828 -1.77344,-2.73829 h 1.35156 l 1.14844,1.83985 1.125,-1.83985 h 1.33984 l -1.78125,2.78125 1.95703,2.94532 h -1.39453 l -1.26953,-1.98047 -1.27344,1.98047 z m 10.36718,0 v -5.72657 h 2.4336 q 0.91797,0 1.33203,0.15625 0.41797,0.15235 0.66797,0.54688 0.25,0.39453 0.25,0.90234 0,0.64453 -0.37891,1.06641 -0.37891,0.41797 -1.13281,0.52734 0.375,0.21875 0.61719,0.48047 0.24609,0.26172 0.66015,0.92969 l 0.69922,1.11719 h -1.38281 l -0.83594,-1.2461 q -0.44531,-0.66797 -0.60937,-0.83984 -0.16407,-0.17578 -0.34766,-0.23828 -0.18359,-0.0664 -0.58203,-0.0664 h -0.23438 v 2.39063 z m 1.15625,-3.30469 h 0.85547 q 0.83203,0 1.03906,-0.0703 0.20704,-0.0703 0.32422,-0.24219 0.11719,-0.17188 0.11719,-0.42969 0,-0.28906 -0.15625,-0.46484 -0.15234,-0.17969 -0.43359,-0.22656 -0.14063,-0.0195 -0.84375,-0.0195 h -0.90235 z m 4.03516,3.30469 1.95703,-2.98828 -1.77344,-2.73829 h 1.35157 l 1.14843,1.83985 1.125,-1.83985 h 1.33985 l -1.78125,2.78125 1.95703,2.94532 h -1.39453 l -1.26953,-1.98047 -1.27344,1.98047 z m 12.27344,0 v -1.15235 h -2.34375 v -0.96093 l 2.48437,-3.63672 h 0.92188 v 3.63281 h 0.71093 v 0.96484 h -0.71093 v 1.15235 z m 0,-2.11719 v -1.95703 l -1.31641,1.95703 z m 2.3125,0.64453 1.09375,-0.11328 q 0.0469,0.37109 0.27734,0.58984 0.23047,0.21485 0.53125,0.21485 0.34375,0 0.58203,-0.27735 0.23828,-0.28125 0.23828,-0.84375 0,-0.52734 -0.23828,-0.78906 -0.23437,-0.26562 -0.61328,-0.26562 -0.47266,0 -0.84766,0.41796 l -0.89062,-0.1289 0.5625,-2.98047 h 2.90234 v 1.02734 h -2.07031 l -0.17187,0.97266 q 0.36718,-0.18359 0.75,-0.18359 0.73046,0 1.23828,0.53125 0.50781,0.53125 0.50781,1.3789 0,0.70703 -0.41016,1.26172 -0.55859,0.75781 -1.55078,0.75781 -0.79297,0 -1.29297,-0.42578 -0.5,-0.42578 -0.59765,-1.14453 z m 13.2539,1.47266 v -1.15235 h -2.34375 v -0.96093 l 2.48438,-3.63672 h 0.92187 v 3.63281 h 0.71094 v 0.96484 h -0.71094 v 1.15235 z m 0,-2.11719 v -1.95703 l -1.3164,1.95703 z m 6.01563,-2.20703 -1.0625,0.11719 q -0.0391,-0.32813 -0.20313,-0.48438 -0.16406,-0.15625 -0.42578,-0.15625 -0.34765,0 -0.58984,0.3125 -0.23828,0.3125 -0.30078,1.30078 0.41015,-0.48437 1.01953,-0.48437 0.6875,0 1.17578,0.52343 0.49219,0.52344 0.49219,1.35157 0,0.8789 -0.51563,1.41015 -0.51562,0.53125 -1.32422,0.53125 -0.86718,0 -1.42578,-0.67187 -0.55859,-0.67578 -0.55859,-2.21094 0,-1.57422 0.58203,-2.26953 0.58203,-0.69531 1.51172,-0.69531 0.65234,0 1.07812,0.36718 0.42969,0.36329 0.54688,1.0586 z m -2.48828,2.39453 q 0,0.53516 0.24609,0.82812 0.24609,0.28907 0.5625,0.28907 0.30469,0 0.50781,-0.23828 0.20313,-0.23829 0.20313,-0.78125 0,-0.5586 -0.21875,-0.81641 -0.21875,-0.26172 -0.54688,-0.26172 -0.3164,0 -0.53515,0.25 -0.21875,0.24609 -0.21875,0.73047 z m 5.68359,1.92969 v -5.72657 h 4.24609 v 0.96875 h -3.08984 v 1.26954 h 2.875 v 0.96484 h -2.875 v 1.55859 h 3.19922 v 0.96485 z m 5.34766,0 v -5.72657 h 1.125 l 2.34375,3.82422 v -3.82422 h 1.07422 v 5.72657 h -1.16016 l -2.30859,-3.73438 v 3.73438 z m 10.65234,-2.10547 v -0.96485 h 2.49219 v 2.28125 q -0.36328,0.35157 -1.05469,0.6211 -0.6875,0.26562 -1.39453,0.26562 -0.89844,0 -1.56641,-0.375 -0.66797,-0.3789 -1.0039,-1.07812 -0.33594,-0.70313 -0.33594,-1.52735 0,-0.89453 0.375,-1.58984 0.375,-0.69531 1.09766,-1.06641 0.55078,-0.28515 1.37109,-0.28515 1.06641,0 1.66406,0.44922 0.60156,0.44531 0.77344,1.23437 l -1.14844,0.21485 q -0.12109,-0.42188 -0.45703,-0.66407 -0.33203,-0.24609 -0.83203,-0.24609 -0.75781,0 -1.20703,0.48047 -0.44531,0.48047 -0.44531,1.42578 0,1.01953 0.45312,1.53125 0.45313,0.50781 1.1875,0.50781 0.36328,0 0.72656,-0.14062 0.36719,-0.14453 0.62891,-0.34766 v -0.72656 z m 3.57031,2.10547 v -5.72657 h 1.125 l 2.34375,3.82422 v -3.82422 h 1.07422 v 5.72657 h -1.16015 l -2.3086,-3.73438 v 3.73438 z m 5.76172,-5.72657 h 2.11328 q 0.71485,0 1.08985,0.10938 0.5039,0.14844 0.86328,0.52734 0.35937,0.37891 0.54687,0.92969 0.1875,0.54688 0.1875,1.35156 0,0.70703 -0.17578,1.21875 -0.21484,0.625 -0.61328,1.01172 -0.30078,0.29297 -0.8125,0.45703 -0.38281,0.1211 -1.02344,0.1211 h -2.17578 z m 1.15625,0.96875 v 3.79297 h 0.86328 q 0.48438,0 0.69922,-0.0547 0.28125,-0.0703 0.46485,-0.23829 0.1875,-0.16796 0.30468,-0.55078 0.11719,-0.38672 0.11719,-1.05078 0,-0.66406 -0.11719,-1.01953 -0.11718,-0.35547 -0.32812,-0.55469 -0.21094,-0.19922 -0.53516,-0.26953 -0.24219,-0.0547 -0.94922,-0.0547 z"
       id="text164"
       style="font-weight:bold;font-size:8px;font-family:Arial;-inkscape-font-specification:'Arial, Bold';fill:#ffffff"
       aria-label="18   19   20  21   26   33  34   35   36   37  38   39  40   41   42  TX  RX  45   46 EN GND" /></g><path
     d="M 38.53,104.409 V 60.535 H 0 v 43.874 z"
     style="fill:#c7c7c7"
     id="path32" /><g
     id="g36"
     transform="translate(28.520049)"><path
       d="m 50.056,133.266 v -8.982 H 9.737 v 8.982 z"
       style="fill:#c7c7c7"
       id="path35" /><path
       id="BTN_BOOT"
       d="M 40.685,137.218 V 120.332 H 16.659 v 16.886 z"
       style="fill:#969696" /><path
       d="m 35.262,128.775 c 0,2.961 -2.404,5.365 -5.365,5.365 -2.961,0 -5.366,-2.404 -5.366,-5.365 0,-2.961 2.405,-5.365 5.366,-5.365 2.961,0 5.365,2.404 5.365,5.365 z"
       id="path36" /></g><g
     id="g34"
     transform="translate(28.520049)"
     style="clip-rule:evenodd;fill-rule:evenodd;stroke-linejoin:round;stroke-miterlimit:2"><path
       d="M 50.056,39.109 V 30.126 H 9.737 v 8.983 z"
       style="fill:#c7c7c7"
       id="path33" /><path
       id="BTN_RESET"
       d="M 40.685,43.061 V 26.174 H 16.659 v 16.887 z"
       style="fill:#969696" /><path
       d="m 35.262,34.617 c 0,2.962 -2.404,5.366 -5.365,5.366 -2.961,0 -5.366,-2.404 -5.366,-5.366 0,-2.961 2.405,-5.365 5.366,-5.365 2.961,0 5.365,2.404 5.365,5.365 z"
       id="path34" /></g><g
     id="g70"
     transform="translate(28.520049)"><g
       id="g43"><path
         d="m 88.101,98.514 v -2.038 h -1.413 v 2.038 z"
         style="fill:#adadad"
         id="path37" /><path
         d="m 85.217,98.514 v -2.038 h -1.413 v 2.038 z"
         style="fill:#adadad"
         id="path38" /><path
         d="M 82.333,98.514 V 96.476 H 80.92 v 2.038 z"
         style="fill:#adadad"
         id="path39" /><path
         d="m 79.449,98.514 v -2.038 h -1.414 v 2.038 z"
         style="fill:#adadad"
         id="path40" /><path
         d="m 76.565,98.514 v -2.038 h -1.414 v 2.038 z"
         style="fill:#adadad"
         id="path41" /><path
         d="m 73.68,98.514 v -2.038 h -1.413 v 2.038 z"
         style="fill:#adadad"
         id="path42" /><path
         d="m 70.796,98.514 v -2.038 h -1.413 v 2.038 z"
         style="fill:#adadad"
         id="path43" /></g><g
       id="g50"><path
         d="m 88.502,66.646 v -2.038 h -1.413 v 2.038 z"
         style="fill:#adadad"
         id="path44" /><path
         d="m 85.618,66.646 v -2.038 h -1.413 v 2.038 z"
         style="fill:#adadad"
         id="path45" /><path
         d="M 82.734,66.646 V 64.608 H 81.32 v 2.038 z"
         style="fill:#adadad"
         id="path46" /><path
         d="m 79.85,66.646 v -2.038 h -1.414 v 2.038 z"
         style="fill:#adadad"
         id="path47" /><path
         d="m 76.965,66.646 v -2.038 h -1.413 v 2.038 z"
         style="fill:#adadad"
         id="path48" /><path
         d="m 74.081,66.646 v -2.038 h -1.413 v 2.038 z"
         style="fill:#adadad"
         id="path49" /><path
         d="m 71.197,66.646 v -2.038 h -1.413 v 2.038 z"
         style="fill:#adadad"
         id="path50" /></g><g
       id="g56"><rect
         x="62.125"
         y="72.202003"
         width="2.0380001"
         height="1.413"
         style="fill:#adadad"
         id="rect50" /><rect
         x="62.125"
         y="75.085999"
         width="2.0380001"
         height="1.413"
         style="fill:#adadad"
         id="rect51" /><rect
         x="62.125"
         y="77.970001"
         width="2.0380001"
         height="1.413"
         style="fill:#adadad"
         id="rect52" /><rect
         x="62.125"
         y="80.853996"
         width="2.0380001"
         height="1.413"
         style="fill:#adadad"
         id="rect53" /><rect
         x="62.125"
         y="83.738998"
         width="2.0380001"
         height="1.413"
         style="fill:#adadad"
         id="rect54" /><rect
         x="62.125"
         y="86.623001"
         width="2.0380001"
         height="1.413"
         style="fill:#adadad"
         id="rect55" /><rect
         x="62.125"
         y="89.507004"
         width="2.0380001"
         height="1.413"
         style="fill:#adadad"
         id="rect56" /></g><g
       id="g63"><rect
         x="93.320999"
         y="72.202003"
         width="2.0380001"
         height="1.413"
         style="fill:#adadad"
         id="rect57" /><rect
         x="93.320999"
         y="75.085999"
         width="2.0380001"
         height="1.413"
         style="fill:#adadad"
         id="rect58" /><rect
         x="93.320999"
         y="77.970001"
         width="2.0380001"
         height="1.413"
         style="fill:#adadad"
         id="rect59" /><rect
         x="93.320999"
         y="80.853996"
         width="2.0380001"
         height="1.413"
         style="fill:#adadad"
         id="rect60" /><rect
         x="93.320999"
         y="83.738998"
         width="2.0380001"
         height="1.413"
         style="fill:#adadad"
         id="rect61" /><rect
         x="93.320999"
         y="86.623001"
         width="2.0380001"
         height="1.413"
         style="fill:#adadad"
         id="rect62" /><rect
         x="93.320999"
         y="89.507004"
         width="2.0380001"
         height="1.413"
         style="fill:#adadad"
         id="rect63" /></g><g
       id="g69"><path
         d="m 88.101,66.646 v -2.038 h -1.413 v 2.038 z"
         style="fill:#adadad"
         id="path63" /><path
         d="m 85.217,66.646 v -2.038 h -1.413 v 2.038 z"
         style="fill:#adadad"
         id="path64" /><path
         d="M 82.333,66.646 V 64.608 H 80.92 v 2.038 z"
         style="fill:#adadad"
         id="path65" /><path
         d="m 79.449,66.646 v -2.038 h -1.414 v 2.038 z"
         style="fill:#adadad"
         id="path66" /><path
         d="m 76.565,66.646 v -2.038 h -1.414 v 2.038 z"
         style="fill:#adadad"
         id="path67" /><path
         d="m 73.68,66.646 v -2.038 h -1.413 v 2.038 z"
         style="fill:#adadad"
         id="path68" /><path
         d="m 70.796,66.646 v -2.038 h -1.413 v 2.038 z"
         style="fill:#adadad"
         id="path69" /></g><path
       d="M 93.321,96.476 V 66.646 H 64.163 v 29.83 z"
       id="path70" /></g><path
     d="m 82.093049,30.228 h 5.761 v 4.496 h -0.974 v -3.272 h -1.277 v 3.044 h -0.971 v -3.044 h -1.568 v 3.387 h -0.971 z"
     style="fill:#ffffff;fill-rule:nonzero"
     id="path112" /><path
     d="m 82.093049,35.89 h 5.761 v 1.191 l -3.847,2.481 h 3.847 v 1.137 h -5.761 v -1.228 l 3.757,-2.444 h -3.757 z"
     style="fill:#ffffff;fill-rule:nonzero"
     id="path113" /><path
     d="m 89.106049,117.926 v 2.423 c 0,0.48 -0.019,0.837 -0.057,1.073 -0.038,0.236 -0.117,0.447 -0.237,0.633 -0.121,0.186 -0.281,0.341 -0.482,0.465 -0.2,0.124 -0.425,0.186 -0.674,0.186 -0.27,0 -0.517,-0.076 -0.743,-0.229 -0.225,-0.153 -0.394,-0.361 -0.506,-0.623 -0.103,0.37 -0.277,0.654 -0.523,0.852 -0.246,0.199 -0.536,0.298 -0.869,0.298 -0.262,0 -0.516,-0.064 -0.764,-0.192 -0.248,-0.129 -0.445,-0.304 -0.593,-0.526 -0.148,-0.221 -0.239,-0.495 -0.273,-0.82 -0.021,-0.204 -0.035,-0.697 -0.04,-1.477 v -2.063 z m -0.959,1.224 h -1.332 v 0.802 c 0,0.477 0.007,0.773 0.02,0.889 0.023,0.21 0.092,0.374 0.206,0.494 0.114,0.12 0.264,0.18 0.45,0.18 0.178,0 0.323,-0.052 0.434,-0.155 0.112,-0.103 0.179,-0.257 0.203,-0.461 0.013,-0.121 0.019,-0.47 0.019,-1.046 z m -2.291,0 h -1.54 v 1.133 c 0,0.441 0.012,0.721 0.035,0.839 0.032,0.182 0.108,0.33 0.23,0.445 0.122,0.114 0.285,0.171 0.489,0.171 0.173,0 0.32,-0.044 0.441,-0.132 0.12,-0.088 0.208,-0.216 0.263,-0.382 0.055,-0.167 0.082,-0.529 0.082,-1.086 z"
     style="fill:#c6c6c6;fill-rule:nonzero"
     id="path114" /><path
     d="m 85.491049,123.761 c 0.367,0 0.722,0.095 1.065,0.285 0.343,0.19 0.605,0.46 0.786,0.809 0.181,0.348 0.271,0.738 0.271,1.168 0,0.664 -0.205,1.209 -0.615,1.633 -0.41,0.425 -0.928,0.637 -1.554,0.637 -0.632,0 -1.155,-0.214 -1.57,-0.643 -0.415,-0.429 -0.623,-0.968 -0.623,-1.619 0,-0.402 0.086,-0.786 0.259,-1.152 0.173,-0.365 0.427,-0.643 0.761,-0.833 0.334,-0.19 0.74,-0.285 1.22,-0.285 z m -0.059,1.191 c -0.414,0 -0.731,0.103 -0.951,0.31 -0.22,0.207 -0.33,0.462 -0.33,0.765 0,0.303 0.11,0.558 0.33,0.763 0.22,0.205 0.54,0.308 0.959,0.308 0.408,0 0.723,-0.103 0.943,-0.308 0.22,-0.205 0.33,-0.46 0.33,-0.763 0,-0.303 -0.11,-0.558 -0.33,-0.765 -0.22,-0.207 -0.537,-0.31 -0.951,-0.31 z"
     style="fill:#c6c6c6;fill-rule:nonzero"
     id="path115" /><path
     d="m 85.491049,128.934 c 0.367,0 0.722,0.095 1.065,0.286 0.343,0.19 0.605,0.459 0.786,0.808 0.181,0.349 0.271,0.738 0.271,1.168 0,0.665 -0.205,1.209 -0.615,1.634 -0.41,0.424 -0.928,0.637 -1.554,0.637 -0.632,0 -1.155,-0.215 -1.57,-0.643 -0.415,-0.429 -0.623,-0.969 -0.623,-1.619 0,-0.403 0.086,-0.787 0.259,-1.152 0.173,-0.365 0.427,-0.643 0.761,-0.833 0.334,-0.191 0.74,-0.286 1.22,-0.286 z m -0.059,1.191 c -0.414,0 -0.731,0.104 -0.951,0.31 -0.22,0.207 -0.33,0.462 -0.33,0.765 0,0.304 0.11,0.558 0.33,0.763 0.22,0.206 0.54,0.308 0.959,0.308 0.408,0 0.723,-0.102 0.943,-0.308 0.22,-0.205 0.33,-0.459 0.33,-0.763 0,-0.303 -0.11,-0.558 -0.33,-0.765 -0.22,-0.206 -0.537,-0.31 -0.951,-0.31 z"
     style="fill:#c6c6c6;fill-rule:nonzero"
     id="path116" /><path
     d="m 87.519049,136.39 h -0.881 v -0.794 h -1.682 c -0.34,0 -0.539,0.008 -0.595,0.023 -0.056,0.015 -0.103,0.05 -0.139,0.104 -0.037,0.053 -0.055,0.119 -0.055,0.196 0,0.107 0.035,0.263 0.106,0.467 l -0.857,0.1 c -0.11,-0.271 -0.165,-0.577 -0.165,-0.919 0,-0.209 0.033,-0.398 0.1,-0.566 0.067,-0.168 0.153,-0.292 0.259,-0.37 0.107,-0.079 0.25,-0.133 0.431,-0.164 0.128,-0.024 0.388,-0.037 0.778,-0.037 h 1.819 v -0.533 h 0.881 v 0.533 h 0.829 l 0.644,1.166 h -1.473 z"
     style="fill:#c6c6c6;fill-rule:nonzero"
     id="path117"
     inkscape:label="path117" /><g
     id="g122"
     transform="translate(28.520049)"><path
       d="M 134.901,72.69 V 61.125 H 130.18 V 72.69 Z"
       style="fill:#adadad"
       id="path118" /><path
       d="M 128.381,102.06 V 90.494 h -17.948 v 11.566 z"
       style="fill:#adadad"
       id="path119" /><path
       d="M 121.674,72.69 V 61.125 h -4.721 V 72.69 Z"
       style="fill:#adadad"
       id="path120" /><path
       d="M 108.617,72.69 V 61.125 h -4.721 V 72.69 Z"
       style="fill:#adadad"
       id="path121" /><path
       d="M 136.708,90.494 V 72.69 h -34.79 v 17.804 z"
       style="fill:#100b00"
       id="path122" /></g><path
     id="LED"
     d="m 115.73005,38.79 v -5.122 h -7.406 v 5.122 z"
     style="fill:#ff000c" /><path
     d="m 316.63766,14.049009 -1.0625,0.128907 q -0.0508,-0.40625 -0.27343,-0.621094 -0.22266,-0.214844 -0.53907,-0.214844 -0.33984,0 -0.57031,0.257813 -0.23437,0.257812 -0.23437,0.695312 0,0.414063 0.22265,0.65625 0.22266,0.242188 0.54297,0.242188 0.21094,0 0.50391,-0.08203 l -0.1211,0.894532 q -0.44531,-0.01172 -0.67968,0.191406 -0.23438,0.207031 -0.23438,0.546875 0,0.289062 0.17188,0.460937 0.17187,0.171875 0.45703,0.171875 0.28125,0 0.48047,-0.195312 0.19922,-0.195313 0.24218,-0.570313 l 1.01172,0.171875 q -0.10547,0.519532 -0.3164,0.828125 -0.21485,0.3125 -0.59375,0.488282 -0.38282,0.179687 -0.85547,0.179687 -0.8086,0 -1.29688,-0.515625 -0.40234,-0.421875 -0.40234,-0.953125 0,-0.753906 0.82422,-1.203125 -0.49219,-0.105469 -0.78516,-0.472656 -0.29687,-0.367188 -0.29687,-0.886719 0,-0.753906 0.55078,-1.285156 0.55078,-0.53125 1.37109,-0.53125 0.77735,0 1.28906,0.445312 0.51172,0.449219 0.59375,1.171875 z m -6.1914,-1.519531 2.04687,5.726563 h -1.2539 l -1.44922,-4.238282 -1.40235,4.238282 h -1.22656 l 2.05078,-5.726563 z m -3.59375,1.519531 -1.0625,0.128907 q -0.0508,-0.40625 -0.27344,-0.621094 -0.22266,-0.214844 -0.53906,-0.214844 -0.33985,0 -0.57031,0.257813 -0.23438,0.257812 -0.23438,0.695312 0,0.414063 0.22266,0.65625 0.22265,0.242188 0.54297,0.242188 0.21093,0 0.5039,-0.08203 l -0.12109,0.894532 q -0.44531,-0.01172 -0.67969,0.191406 -0.23437,0.207031 -0.23437,0.546875 0,0.289062 0.17187,0.460937 0.17188,0.171875 0.45703,0.171875 0.28125,0 0.48047,-0.195312 0.19922,-0.195313 0.24219,-0.570313 l 1.01172,0.171875 q -0.10547,0.519532 -0.31641,0.828125 -0.21484,0.3125 -0.59375,0.488282 -0.38281,0.179687 -0.85547,0.179687 -0.80859,0 -1.29687,-0.515625 -0.40235,-0.421875 -0.40235,-0.953125 0,-0.753906 0.82422,-1.203125 -0.49219,-0.105469 -0.78515,-0.472656 -0.29688,-0.367188 -0.29688,-0.886719 0,-0.753906 0.55078,-1.285156 0.55078,-0.53125 1.3711,-0.53125 0.77734,0 1.28906,0.445312 0.51172,0.449219 0.59375,1.171875 z m -10.78906,4.230469 q -0.83204,0 -1.30079,-0.59375 -0.55859,-0.703125 -0.55859,-2.332031 0,-1.625 0.5625,-2.335938 0.46484,-0.585937 1.29688,-0.585937 0.83593,0 1.34765,0.640625 0.51172,0.644531 0.51172,2.292969 0,1.617187 -0.5625,2.328125 -0.46484,0.585937 -1.29687,0.585937 z m 0,-0.910156 q 0.19921,0 0.35546,-0.128906 0.15625,-0.125 0.24219,-0.453125 0.11328,-0.425782 0.11328,-1.433594 0,-1.007813 -0.10156,-1.386719 -0.10156,-0.375 -0.25391,-0.5 -0.15625,-0.125 -0.35546,-0.125 -0.19922,0 -0.35547,0.125 -0.15625,0.128906 -0.24219,0.457031 -0.11328,0.421875 -0.11328,1.429688 0,1.007812 0.10156,1.382812 0.10156,0.378907 0.25781,0.503907 0.15235,0.128906 0.35157,0.128906 z m -14.29297,-4.839844 h 1.09765 v 4.136719 q 0.60157,-0.5625 1.41797,-0.832031 v 0.996093 q -0.42969,0.140625 -0.93359,0.53125 -0.50391,0.394532 -0.69141,0.917969 h -0.89062 z m -16.46094,1.019531 v -1.019531 h 3.84766 q -0.0625,0.578125 -0.375,1.09375 -0.3125,0.519531 -1.23438,1.375 -0.74219,0.691406 -0.91016,0.9375 -0.22656,0.339844 -0.22656,0.671875 0,0.367188 0.19922,0.5625 0.19531,0.199219 0.54297,0.199219 0.34375,0 0.54687,-0.207031 0.20313,-0.207032 0.23438,-0.6875 l 1.09375,0.109375 q -0.0977,0.90625 -0.61328,1.300781 -0.51563,0.394531 -1.28906,0.394531 -0.84766,0 -1.33204,-0.457031 -0.48437,-0.457031 -0.48437,-1.136719 0,-0.386719 0.14062,-0.738281 0.13672,-0.347656 0.4375,-0.730469 0.19922,-0.253906 0.71875,-0.730469 0.51954,-0.476562 0.66016,-0.632812 0.13672,-0.15625 0.22266,-0.304688 z m -11.81641,0.5 -1.0625,0.128907 q -0.0508,-0.40625 -0.27343,-0.621094 -0.22266,-0.214844 -0.53907,-0.214844 -0.33984,0 -0.57031,0.257813 -0.23437,0.257812 -0.23437,0.695312 0,0.414063 0.22265,0.65625 0.22266,0.242188 0.54297,0.242188 0.21094,0 0.50391,-0.08203 l -0.1211,0.894532 q -0.44531,-0.01172 -0.67968,0.191406 -0.23438,0.207031 -0.23438,0.546875 0,0.289062 0.17188,0.460937 0.17187,0.171875 0.45703,0.171875 0.28125,0 0.48047,-0.195312 0.19921,-0.195313 0.24218,-0.570313 l 1.01172,0.171875 q -0.10547,0.519532 -0.3164,0.828125 -0.21485,0.3125 -0.59375,0.488282 -0.38282,0.179687 -0.85547,0.179687 -0.8086,0 -1.29688,-0.515625 -0.40234,-0.421875 -0.40234,-0.953125 0,-0.753906 0.82422,-1.203125 -0.49219,-0.105469 -0.78516,-0.472656 -0.29687,-0.367188 -0.29687,-0.886719 0,-0.753906 0.55078,-1.285156 0.55078,-0.53125 1.37109,-0.53125 0.77734,0 1.28906,0.445312 0.51172,0.449219 0.59375,1.171875 z m -15.53125,-1.519531 v 1.152344 h 2.34375 v 0.960937 l -2.48437,3.636719 h -0.92188 v -3.632812 h -0.71093 v -0.964844 h 0.71093 v -1.152344 z m 0,2.117188 v 1.957031 l 1.31641,-1.957031 z m -13.42578,-0.644532 -1.09375,0.113282 q -0.0469,-0.371094 -0.27734,-0.589844 -0.23047,-0.214844 -0.53125,-0.214844 -0.34375,0 -0.58203,0.277344 -0.23828,0.28125 -0.23828,0.84375 0,0.527344 0.23828,0.789062 0.23437,0.265625 0.61328,0.265625 0.47265,0 0.84765,-0.417968 l 0.89063,0.128906 -0.5625,2.980469 h -2.90234 v -1.027344 h 2.07031 l 0.17187,-0.972656 q -0.36718,0.183593 -0.75,0.183593 -0.73047,0 -1.23828,-0.53125 -0.50781,-0.53125 -0.50781,-1.378906 0,-0.707031 0.41016,-1.261719 0.55859,-0.757812 1.55078,-0.757812 0.79297,0 1.29297,0.425781 0.5,0.425781 0.59765,1.144531 z m -19.26562,2.851563 1.0625,-0.117188 q 0.0391,0.328125 0.20312,0.484375 0.16406,0.15625 0.42578,0.15625 0.34766,0 0.58985,-0.3125 0.23828,-0.3125 0.30078,-1.300781 -0.41016,0.484375 -1.01953,0.484375 -0.6875,0 -1.17578,-0.523437 -0.49219,-0.523438 -0.49219,-1.351563 0,-0.878906 0.51562,-1.410156 0.51563,-0.53125 1.32422,-0.53125 0.86719,0 1.42578,0.671875 0.5586,0.675781 0.5586,2.210937 0,1.574219 -0.58203,2.269532 -0.58204,0.695312 -1.51172,0.695312 -0.65235,0 -1.07813,-0.367187 -0.42969,-0.363282 -0.54687,-1.058594 z m 2.48828,-2.394531 q 0,-0.535157 -0.2461,-0.828125 -0.24609,-0.289063 -0.5625,-0.289063 -0.30468,0 -0.50781,0.238281 -0.20312,0.238282 -0.20312,0.78125 0,0.558594 0.21875,0.816407 0.21875,0.261718 0.54687,0.261718 0.31641,0 0.53516,-0.25 0.21875,-0.246093 0.21875,-0.730468 z m -14.33203,2.699218 v 1.019532 h -3.75391 v -0.796875 q 0.46484,-0.457032 0.94531,-1.3125 0.48047,-0.855469 0.73438,-1.820313 0.25,-0.960937 0.24609,-1.71875 h 1.0586 q -0.0273,1.1875 -0.48829,2.421875 -0.46484,1.234375 -1.23828,2.207031 z m -14.28125,-1.539062 q 0.42578,0.179687 0.62109,0.492187 0.19141,0.316407 0.19141,0.691407 0,0.640625 -0.44532,1.058593 -0.44921,0.417969 -1.27343,0.417969 -0.81641,0 -1.26563,-0.417969 -0.45312,-0.417968 -0.45312,-1.058593 0,-0.398438 0.20703,-0.710938 0.20703,-0.308594 0.58203,-0.472656 -0.47656,-0.191406 -0.72266,-0.558594 -0.25,-0.367187 -0.25,-0.847656 0,-0.792969 0.50782,-1.289063 0.5039,-0.496093 1.34375,-0.496093 0.78125,0 1.30078,0.410156 0.61328,0.484375 0.61328,1.328125 0,0.464844 -0.23047,0.851562 -0.23047,0.390625 -0.72656,0.601563 z m -0.22657,1.105469 q 0,-0.328125 -0.18359,-0.511719 -0.1875,-0.183594 -0.49609,-0.183594 -0.3125,0 -0.5,0.183594 -0.1875,0.1875 -0.1875,0.515625 0,0.308594 0.1875,0.492187 0.18359,0.1875 0.48828,0.1875 0.3164,0 0.5039,-0.1875 0.1875,-0.1875 0.1875,-0.496093 z m 0.10157,-2.453125 q 0,-0.453125 -0.23047,-0.707032 -0.23438,-0.253906 -0.58203,-0.253906 -0.33985,0 -0.5625,0.242188 -0.22266,0.246093 -0.22266,0.707031 0,0.402344 0.22656,0.644531 0.22657,0.246094 0.57422,0.246094 0.40235,0 0.60156,-0.277344 0.19532,-0.277344 0.19532,-0.601562 z m -14.51953,-0.417969 -1.0625,0.117187 q -0.0391,-0.324218 -0.20313,-0.480468 -0.16406,-0.15625 -0.43359,-0.15625 -0.33985,0 -0.57813,0.3125 -0.23828,0.3125 -0.30469,1.296875 0.41407,-0.480469 1.03516,-0.480469 0.67578,0 1.16797,0.519531 0.48828,0.523438 0.48828,1.359375 0,0.871094 -0.51562,1.402344 -0.51954,0.535156 -1.32032,0.535156 -0.87109,0 -1.42968,-0.675781 -0.5586,-0.671875 -0.5586,-2.214844 0,-1.570312 0.58203,-2.265625 0.58203,-0.695312 1.51563,-0.695312 0.67187,0 1.08594,0.355468 0.41406,0.359375 0.53125,1.070313 z m -2.48438,2.398437 q 0,0.53125 0.24609,0.824219 0.24219,0.292969 0.5625,0.292969 0.30469,0 0.50782,-0.242188 0.19922,-0.238281 0.19922,-0.785156 0,-0.554687 -0.21875,-0.816406 -0.21875,-0.257813 -0.54688,-0.257813 -0.31641,0 -0.53125,0.25 -0.21875,0.25 -0.21875,0.734375 z m -13.64062,-3.722656 h 1.09765 v 4.136719 q 0.60156,-0.5625 1.41797,-0.832031 v 0.996093 q -0.42969,0.140625 -0.93359,0.53125 -0.50391,0.394532 -0.69141,0.917969 h -0.89062 z m -3.4961,5.75 q -0.83203,0 -1.30078,-0.59375 -0.55859,-0.703125 -0.55859,-2.332031 0,-1.625 0.5625,-2.335938 0.46484,-0.585937 1.29687,-0.585937 0.83594,0 1.34766,0.640625 0.51172,0.644531 0.51172,2.292969 0,1.617187 -0.5625,2.328125 -0.46485,0.585937 -1.29688,0.585937 z m 0,-0.910156 q 0.19922,0 0.35547,-0.128906 0.15625,-0.125 0.24219,-0.453125 0.11328,-0.425782 0.11328,-1.433594 0,-1.007813 -0.10156,-1.386719 -0.10157,-0.375 -0.25391,-0.5 -0.15625,-0.125 -0.35547,-0.125 -0.19922,0 -0.35547,0.125 -0.15625,0.128906 -0.24218,0.457031 -0.11329,0.421875 -0.11329,1.429688 0,1.007812 0.10157,1.382812 0.10156,0.378907 0.25781,0.503907 0.15234,0.128906 0.35156,0.128906 z m -12.07031,-4.839844 h 1.09766 v 4.136719 q 0.60156,-0.5625 1.41796,-0.832031 v 0.996093 q -0.42968,0.140625 -0.93359,0.53125 -0.50391,0.394532 -0.69141,0.917969 h -0.89062 z m -4.00781,0 h 1.09765 v 4.136719 q 0.60157,-0.5625 1.41797,-0.832031 v 0.996093 q -0.42969,0.140625 -0.93359,0.53125 -0.50391,0.394532 -0.69141,0.917969 h -0.89062 z m -8.89453,0 h 1.09765 v 4.136719 q 0.60156,-0.5625 1.41797,-0.832031 v 0.996093 q -0.42969,0.140625 -0.93359,0.53125 -0.50391,0.394532 -0.69141,0.917969 h -0.89062 z m -5.34766,1.019531 v -1.019531 h 3.84766 q -0.0625,0.578125 -0.375,1.09375 -0.3125,0.519531 -1.23438,1.375 -0.74219,0.691406 -0.91016,0.9375 -0.22656,0.339844 -0.22656,0.671875 0,0.367188 0.19922,0.5625 0.19531,0.199219 0.54297,0.199219 0.34375,0 0.54687,-0.207031 0.20313,-0.207032 0.23438,-0.6875 l 1.09375,0.109375 q -0.0977,0.90625 -0.61328,1.300781 -0.51563,0.394531 -1.28906,0.394531 -0.84766,0 -1.33204,-0.457031 -0.48437,-0.457031 -0.48437,-1.136719 0,-0.386719 0.14062,-0.738281 0.13672,-0.347656 0.4375,-0.730469 0.19922,-0.253906 0.71875,-0.730469 0.51954,-0.476562 0.66016,-0.632812 0.13672,-0.15625 0.22266,-0.304688 z m -10.21875,-1.019531 h 1.09766 v 4.136719 q 0.60156,-0.5625 1.41796,-0.832031 v 0.996093 q -0.42968,0.140625 -0.93359,0.53125 -0.50391,0.394532 -0.69141,0.917969 h -0.89062 z m -1.60156,1.519531 -1.0625,0.128907 q -0.0508,-0.40625 -0.27344,-0.621094 -0.22266,-0.214844 -0.53906,-0.214844 -0.33985,0 -0.57032,0.257813 -0.23437,0.257812 -0.23437,0.695312 0,0.414063 0.22266,0.65625 0.22265,0.242188 0.54296,0.242188 0.21094,0 0.50391,-0.08203 l -0.12109,0.894532 q -0.44532,-0.01172 -0.67969,0.191406 -0.23438,0.207031 -0.23438,0.546875 0,0.289062 0.17188,0.460937 0.17187,0.171875 0.45703,0.171875 0.28125,0 0.48047,-0.195312 0.19922,-0.195313 0.24219,-0.570313 l 1.01172,0.171875 q -0.10547,0.519532 -0.31641,0.828125 -0.21484,0.3125 -0.59375,0.488282 -0.38281,0.179687 -0.85547,0.179687 -0.80859,0 -1.296875,-0.515625 -0.402344,-0.421875 -0.402344,-0.953125 0,-0.753906 0.824219,-1.203125 -0.492188,-0.105469 -0.785156,-0.472656 -0.296875,-0.367188 -0.296875,-0.886719 0,-0.753906 0.550781,-1.285156 0.55078,-0.53125 1.37109,-0.53125 0.77735,0 1.28907,0.445312 0.51172,0.449219 0.59375,1.171875 z M 90.997039,12.529478 h 1.097656 v 4.136719 q 0.601562,-0.5625 1.417969,-0.832031 v 0.996093 q -0.429688,0.140625 -0.933594,0.53125 -0.503906,0.394532 -0.691406,0.917969 h -0.890625 z m -3.792969,0 v 1.152344 h 2.34375 v 0.960937 l -2.484375,3.636719 H 86.14157 v -3.632812 h -0.710938 v -0.964844 h 0.710938 v -1.152344 z m 0,2.117188 v 1.957031 l 1.316406,-1.957031 z M 75.430632,12.529478 h 1.097657 v 4.136719 q 0.601562,-0.5625 1.417968,-0.832031 v 0.996093 q -0.429687,0.140625 -0.933593,0.53125 -0.503907,0.394532 -0.691407,0.917969 h -0.890625 z m -1.65625,1.472656 -1.09375,0.113282 q -0.04687,-0.371094 -0.277343,-0.589844 -0.230469,-0.214844 -0.53125,-0.214844 -0.34375,0 -0.582032,0.277344 -0.238281,0.28125 -0.238281,0.84375 0,0.527344 0.238281,0.789062 0.234375,0.265625 0.613282,0.265625 0.472656,0 0.847656,-0.417968 l 0.890625,0.128906 -0.5625,2.980469 h -2.902344 v -1.027344 h 2.070313 l 0.171875,-0.972656 q -0.367188,0.183593 -0.75,0.183593 -0.730469,0 -1.238282,-0.53125 -0.507812,-0.53125 -0.507812,-1.378906 0,-0.707031 0.410156,-1.261719 0.558594,-0.757812 1.550781,-0.757812 0.792969,0 1.292969,0.425781 0.5,0.425781 0.597656,1.144531 z M 59.864226,12.529478 h 1.097656 v 4.136719 q 0.601563,-0.5625 1.417969,-0.832031 v 0.996093 q -0.429687,0.140625 -0.933594,0.53125 -0.503906,0.394532 -0.691406,0.917969 h -0.890625 z m -5.359375,4.324219 1.0625,-0.117188 q 0.03906,0.328125 0.203125,0.484375 0.164063,0.15625 0.425781,0.15625 0.347657,0 0.589844,-0.3125 0.238281,-0.3125 0.300781,-1.300781 -0.410156,0.484375 -1.019531,0.484375 -0.6875,0 -1.175781,-0.523437 -0.492188,-0.523438 -0.492188,-1.351563 0,-0.878906 0.515625,-1.410156 0.515625,-0.53125 1.324219,-0.53125 0.867188,0 1.425781,0.671875 0.558594,0.675781 0.558594,2.210937 0,1.574219 -0.582031,2.269532 -0.582031,0.695312 -1.511719,0.695312 -0.652344,0 -1.078125,-0.367187 -0.429687,-0.363282 -0.546875,-1.058594 z m 2.488281,-2.394531 q 0,-0.535157 -0.246093,-0.828125 -0.246094,-0.289063 -0.5625,-0.289063 -0.304688,0 -0.507813,0.238281 -0.203125,0.238282 -0.203125,0.78125 0,0.558594 0.21875,0.816407 0.21875,0.261718 0.546875,0.261718 0.316406,0 0.535156,-0.25 0.21875,-0.246093 0.21875,-0.730468 z M 44.29782,12.529478 h 1.097656 v 4.136719 q 0.601563,-0.5625 1.417969,-0.832031 v 0.996093 q -0.429688,0.140625 -0.933594,0.53125 -0.503906,0.394532 -0.691406,0.917969 H 44.29782 Z m -1.640625,4.628906 v 1.019532 h -3.753906 v -0.796875 q 0.464843,-0.457032 0.945312,-1.3125 0.480469,-0.855469 0.734375,-1.820313 0.25,-0.960937 0.246094,-1.71875 h 1.058594 q -0.02734,1.1875 -0.488282,2.421875 -0.464843,1.234375 -1.238281,2.207031 z m -8.910156,-3.15625 -1.09375,0.113282 q -0.04687,-0.371094 -0.277344,-0.589844 -0.230469,-0.214844 -0.53125,-0.214844 -0.34375,0 -0.582031,0.277344 -0.238281,0.28125 -0.238281,0.84375 0,0.527344 0.238281,0.789062 0.234375,0.265625 0.613281,0.265625 0.472656,0 0.847656,-0.417968 l 0.890625,0.128906 -0.5625,2.980469 h -2.902343 v -1.027344 h 2.070312 l 0.171875,-0.972656 q -0.367187,0.183593 -0.75,0.183593 -0.730469,0 -1.238281,-0.53125 -0.507813,-0.53125 -0.507813,-1.378906 0,-0.707031 0.410157,-1.261719 0.558593,-0.757812 1.550781,-0.757812 0.792969,0 1.292969,0.425781 0.5,0.425781 0.597656,1.144531 z m -6.136719,-1.472656 2.046875,5.726563 h -1.253906 l -1.449219,-4.238282 -1.402344,4.238282 h -1.226562 l 2.050781,-5.726563 z m -8.761719,2.105469 v 0.964844 h -2.492187 v -2.28125 q 0.363281,-0.351563 1.054687,-0.621094 0.6875,-0.265625 1.394532,-0.265625 0.898437,0 1.566406,0.375 0.667969,0.378906 1.003906,1.078125 0.335938,0.703125 0.335938,1.527344 0,0.894531 -0.375,1.589843 -0.375,0.695313 -1.097657,1.066407 -0.550781,0.285156 -1.371093,0.285156 -1.066407,0 -1.664063,-0.449219 -0.601563,-0.445312 -0.773438,-1.234375 l 1.148438,-0.214844 q 0.121094,0.421875 0.457031,0.664063 0.332031,0.246094 0.832032,0.246094 0.757812,0 1.207031,-0.480469 0.445312,-0.480469 0.445312,-1.425781 0,-1.019532 -0.453125,-1.53125 -0.453125,-0.507813 -1.1875,-0.507813 -0.363281,0 -0.726562,0.140625 -0.367188,0.144531 -0.628907,0.347656 v 0.726563 z m -3.570312,-2.105469 v 5.726563 h -1.125 l -2.34375,-3.824219 v 3.824219 H 10.73532 v -5.726563 h 1.160156 l 2.308594,3.734375 V 12.529478 Z M 9.51657,18.256041 H 7.403289 q -0.714844,0 -1.089844,-0.109375 -0.503906,-0.148438 -0.863281,-0.527344 -0.359375,-0.378906 -0.546875,-0.929688 -0.1875,-0.546875 -0.1875,-1.351562 0,-0.707031 0.175781,-1.21875 0.214844,-0.625 0.613281,-1.011719 0.300781,-0.292969 0.8125,-0.457031 0.382813,-0.121094 1.023438,-0.121094 H 9.51657 Z M 8.36032,17.287291 V 13.494322 H 7.497039 q -0.484375,0 -0.699219,0.05469 -0.28125,0.07031 -0.464844,0.238282 -0.1875,0.167968 -0.304687,0.550781 -0.117188,0.386719 -0.117188,1.050781 0,0.664063 0.117188,1.019531 0.117187,0.355469 0.328125,0.554688 0.210937,0.199219 0.535156,0.269531 0.242187,0.05469 0.949219,0.05469 z"
     id="text160"
     style="-inkscape-font-specification:'Arial, Bold';fill:#ffffff"
     aria-label="3V3  0    1     2     3    4     5     6     7    8     9    10   11  12   13  14   15   16   17  5V GND" /><g
     id="g174"><text
       style="font-weight:bold;font-size:16px;font-family:Arial;-inkscape-font-specification:'Arial, Bold';fill:#ef4e51"
       x="184.87396"
       y="96.91877"
       id="text174">x</text><text
       style="font-weight:bold;font-size:16px;font-family:Arial;-inkscape-font-specification:'Arial, Bold';fill:#ef4e51"
       x="193.7724"
       y="96.91877"
       id="text173">i</text><text
       style="font-weight:bold;font-size:16px;font-family:Arial;-inkscape-font-specification:'Arial, Bold';fill:#ef4e51"
       x="198.21771"
       y="96.91877"
       id="text172">r</text><text
       style="font-weight:bold;font-size:16px;font-family:Arial;-inkscape-font-specification:'Arial, Bold';fill:#ef4e51"
       x="204.44427"
       y="96.91877"
       id="text171">k</text><text
       style="font-weight:bold;font-size:16px;font-family:Arial;-inkscape-font-specification:'Arial, Bold';fill:#ef4e51"
       x="213.34271"
       y="96.91877"
       id="text170">a</text><text
       style="font-weight:bold;font-size:16px;font-family:Arial;-inkscape-font-specification:'Arial, Bold';fill:#ef4e51"
       x="222.24115"
       y="96.91877"
       id="text169">:</text><text
       style="font-weight:bold;font-size:16px;font-family:Arial;-inkscape-font-specification:'Arial, Bold';fill:#ef4e51"
       x="227.56927"
       y="96.91877"
       id="text168">b</text><text
       style="font-weight:bold;font-size:16px;font-family:Arial;-inkscape-font-specification:'Arial, Bold';fill:#ef4e51"
       x="237.34271"
       y="96.91877"
       id="text167">i</text><text
       style="font-weight:bold;font-size:16px;font-family:Arial;-inkscape-font-specification:'Arial, Bold';fill:#ef4e51"
       x="241.78802"
       y="96.91877"
       id="text166">t</text></g></svg>
