<svg width="352.979" height="162.977" viewBox="0 0 352.979 162.977" version="1.1" xml:space="preserve" id="svg159" xmlns="http://www.w3.org/2000/svg" clip-rule="evenodd" fill-rule="evenodd" stroke-linejoin="round" stroke-miterlimit="2">
  <path d="M313.146 162.977c4.071 0 7.377-2.921 7.377-6.519V6.519c0-3.598-3.306-6.519-7.377-6.519H10.35C6.278 0 2.972 2.921 2.972 6.519v149.939c0 3.598 3.306 6.519 7.378 6.519z" id="path1" fill="#2d2d2d" stroke-width="1.064"/>
  <g id="g30" transform="translate(28.52)">
    <path d="M324.459 134.082V29.13H140.458v104.952z" id="path2"/>
    <path d="M302.013 76.811h17.743v-7.984h-17.743V49h17.743v-8.37h-22.811v-4.678h27.489v17.725H306.69v10.472h17.744v17.34H306.69v10.472h17.744v29.976h-35.659v-4.677h30.981v-8.364h-30.981v-4.678h30.981v-7.58h-17.743z" id="path3" fill="#d09600"/>
    <g id="g29">
      <path d="M144.27 35.464h140.55v61.951h-22.337v31.241H144.27z" id="path4" fill="#c7c7c7"/>
      <path d="M268.666 51.568h7.201v3.571h-.85v-2.917h-2.205v2.731h-.845v-2.731h-2.451v3.031h-.85z" id="path19" fill-rule="nonzero"/>
      <path d="M270.979 55.934l.079.616c-.36.029-.656.097-.887.204-.23.107-.417.272-.56.497a1.387 1.387 0 00-.213.758c0 .249.054.469.162.66.108.191.256.333.444.426.189.093.394.14.617.14.226 0 .423-.045.592-.135.168-.09.31-.238.425-.445.075-.132.192-.425.351-.879.159-.453.309-.771.449-.953.18-.236.404-.412.671-.527.267-.116.566-.174.896-.174.364 0 .704.071 1.02.212.316.142.555.349.719.62.164.272.246.574.246.906 0 .366-.086.689-.258.969a1.67 1.67 0 01-.759.645 2.93 2.93 0 01-1.135.242l-.068-.626c.455-.034.799-.148 1.031-.342.233-.194.349-.481.349-.861 0-.395-.106-.683-.317-.864a1.14 1.14 0 00-.764-.271c-.259 0-.471.064-.638.192-.167.126-.338.454-.514.985-.175.532-.328.896-.459 1.094a1.772 1.772 0 01-.734.636 2.42 2.42 0 01-1.025.206c-.383 0-.744-.076-1.083-.226a1.802 1.802 0 01-.79-.648 1.672 1.672 0 01-.283-.952c0-.447.095-.821.285-1.123.19-.303.476-.539.857-.711a3.27 3.27 0 011.294-.271z" id="path20" fill-rule="nonzero"/>
      <path d="M268.666 60.757h7.201v1.863c0 .328-.023.578-.069.751a1.259 1.259 0 01-.336.61c-.166.164-.397.296-.695.396-.298.1-.626.15-.983.15-.612 0-1.13-.134-1.554-.401-.424-.267-.636-.75-.636-1.449v-1.266h-2.928zm3.777.654v1.276c0 .423.115.722.344.9.229.177.552.266.968.266.301 0 .559-.052.773-.157.215-.104.357-.242.425-.412.043-.11.064-.314.064-.61v-1.263z" id="path21" fill-rule="nonzero"/>
      <path d="M268.666 65.369h7.201v2.189c0 .44-.065.775-.194 1.004-.129.229-.358.412-.685.549-.328.137-.69.206-1.086.206-.511 0-.941-.114-1.292-.341-.35-.226-.573-.577-.668-1.051-.121.173-.24.305-.358.395-.256.19-.575.371-.958.542l-1.96.859v-.822l1.498-.654c.432-.19.763-.348.992-.471.23-.124.39-.234.482-.332a.878.878 0 00.191-.298 1.35 1.35 0 00.035-.364v-.758h-3.198zm4.023.653v1.405c0 .299.045.532.135.701a.87.87 0 00.432.384c.198.087.414.131.646.131.341 0 .621-.085.84-.254.22-.17.329-.438.329-.804v-1.563z" id="path22" fill-rule="nonzero"/>
      <path d="M268.666 70.354h7.201v3.571h-.85v-2.917h-2.205v2.732h-.845v-2.732h-2.451v3.031h-.85z" id="path23" fill-rule="nonzero"/>
      <path d="M270.979 74.72l.079.616c-.36.029-.656.097-.887.204-.23.107-.417.272-.56.497a1.387 1.387 0 00-.213.758c0 .249.054.469.162.66.108.191.256.333.444.426.189.093.394.14.617.14.226 0 .423-.045.592-.135.168-.09.31-.238.425-.445.075-.132.192-.425.351-.879.159-.453.309-.771.449-.953.18-.236.404-.411.671-.527.267-.116.566-.174.896-.174.364 0 .704.071 1.02.213.316.141.555.348.719.619.164.272.246.574.246.907 0 .366-.086.688-.258.968-.172.28-.425.495-.759.645-.334.15-.712.231-1.135.243l-.068-.627c.455-.034.799-.148 1.031-.342.233-.194.349-.481.349-.861 0-.395-.106-.683-.317-.864a1.14 1.14 0 00-.764-.271c-.259 0-.471.064-.638.192-.167.126-.338.454-.514.986-.175.531-.328.895-.459 1.093a1.772 1.772 0 01-.734.636 2.42 2.42 0 01-1.025.206c-.383 0-.744-.075-1.083-.226a1.802 1.802 0 01-.79-.648 1.67 1.67 0 01-.283-.952c0-.447.095-.821.285-1.123.19-.302.476-.539.857-.711a3.27 3.27 0 011.294-.271z" id="path24" fill-rule="nonzero"/>
      <path d="M270.979 79.321l.079.617c-.36.029-.656.097-.887.203-.23.107-.417.273-.56.497a1.389 1.389 0 00-.213.758c0 .249.054.469.162.66.108.191.256.333.444.426.189.094.394.14.617.14.226 0 .423-.045.592-.134.168-.09.31-.239.425-.445.075-.133.192-.426.351-.879.159-.454.309-.772.449-.954.18-.235.404-.411.671-.527.267-.115.566-.173.896-.173.364 0 .704.07 1.02.212.316.141.555.348.719.62.164.271.246.574.246.906 0 .366-.086.689-.258.968-.172.28-.425.495-.759.645a2.913 2.913 0 01-1.135.243l-.068-.627c.455-.033.799-.147 1.031-.342.233-.194.349-.481.349-.86 0-.395-.106-.683-.317-.864a1.134 1.134 0 00-.764-.271c-.259 0-.471.064-.638.192-.167.125-.338.454-.514.985-.175.531-.328.895-.459 1.093-.193.287-.438.5-.734.637a2.42 2.42 0 01-1.025.205c-.383 0-.744-.075-1.083-.226a1.795 1.795 0 01-.79-.648 1.67 1.67 0 01-.283-.952c0-.446.095-.821.285-1.123.19-.302.476-.539.857-.711a3.27 3.27 0 011.294-.271z" id="path25" fill-rule="nonzero"/>
      <path d="M268.666 84.256h7.201v.653h-7.201z" id="path26" fill-rule="nonzero"/>
      <path d="M268.666 86.095h7.201v3.332h-.85v-2.678h-2.23v2.317h-.85v-2.317h-3.271z" id="path27" fill-rule="nonzero"/>
      <path d="M215.21 48.507l-.561 1.525c-1.825-.32-3.217-.895-4.176-1.725-.958-.83-1.437-1.845-1.437-3.044 0-1.241.368-2.251 1.105-3.028.737-.778 1.804-1.37 3.202-1.776 1.398-.406 2.898-.609 4.502-.609 1.749 0 3.275.229 4.577.688 1.302.458 2.291 1.11 2.967 1.956.676.846 1.014 1.777 1.014 2.793 0 1.152-.428 2.121-1.283 2.906-.856.786-2.059 1.333-3.609 1.642l-.516-1.5c1.222-.267 2.112-.655 2.67-1.163.557-.508.836-1.147.836-1.917 0-.885-.309-1.625-.928-2.219-.619-.595-1.449-1.012-2.492-1.253a14.264 14.264 0 00-3.224-.362c-1.429 0-2.675.143-3.741.429-1.065.285-1.861.729-2.388 1.331-.527.602-.791 1.255-.791 1.956 0 .854.359 1.577 1.077 2.169.718.591 1.783.992 3.196 1.201z" id="path28" fill-rule="nonzero"/>
      <path d="M209.322 51.94h16.794v8.328h-1.982v-6.803h-5.143v6.371h-1.971v-6.371h-5.716v7.07h-1.982z" id="path29" clip-rule="evenodd" fill-rule="nonzero" stroke-linejoin="round" stroke-miterlimit="2"/>
      <path d="M51.358-249.89v-5.726h4.14v.675h-3.382v1.754h3.168v.672h-3.168v1.95h3.515v.675zm5.062-1.84l.715-.062q.051.43.235.707.187.273.578.445.39.168.879.168.433 0 .765-.129t.493-.351q.164-.227.164-.492 0-.27-.157-.47-.156-.202-.515-.34-.23-.089-1.02-.276-.789-.192-1.105-.36-.41-.215-.614-.531-.199-.32-.199-.715 0-.433.246-.808.246-.38.72-.575.472-.195 1.05-.195.637 0 1.12.207.49.203.75.602.263.398.282.902l-.726.055q-.059-.543-.399-.82-.336-.278-.996-.278-.687 0-1.004.254-.312.25-.312.605 0 .309.222.508.22.2 1.141.41.926.207 1.27.364.5.23.738.586.238.351.238.812 0 .457-.262.863-.261.403-.754.63-.488.222-1.101.222-.777 0-1.305-.227-.523-.226-.824-.68-.297-.456-.313-1.03zm5.594 1.84v-5.726h2.16q.57 0 .871.054.422.07.708.27.285.195.457.55.175.356.175.782 0 .73-.465 1.238-.464.504-1.68.504h-1.468v2.328zm.758-3.004h1.48q.735 0 1.043-.273.31-.274.31-.77 0-.359-.185-.613-.18-.258-.476-.34-.191-.05-.707-.05h-1.465zm4.297 1.493l.703-.094q.121.597.41.863.293.262.711.262.496 0 .836-.344.344-.344.344-.852 0-.484-.317-.796-.316-.317-.804-.317-.2 0-.496.078l.078-.617q.07.008.113.008.45 0 .809-.234.359-.235.359-.723 0-.387-.262-.64-.261-.254-.675-.254-.41 0-.684.257-.274.258-.352.774l-.703-.125q.13-.707.586-1.094.457-.39 1.137-.39.469 0 .863.203.395.199.602.546.21.348.21.739 0 .37-.199.676-.199.304-.59.484.508.117.79.488.28.367.28.922 0 .75-.546 1.273-.547.52-1.383.52-.754 0-1.254-.45-.496-.448-.566-1.163zm8.14.835v.676h-3.785q-.007-.254.082-.488.145-.387.461-.762.32-.375.922-.867.934-.766 1.262-1.21.328-.45.328-.849 0-.418-.3-.703-.298-.289-.778-.289-.508 0-.813.305-.304.305-.308.844l-.723-.074q.074-.81.559-1.231.484-.426 1.3-.426.825 0 1.305.457t.48 1.133q0 .344-.14.676-.14.332-.469.7-.324.366-1.082 1.007-.632.531-.812.723-.18.187-.297.378zm.676-1.043v-.707h2.16v.707zm2.77-.12l.715-.063q.05.43.234.707.188.273.578.445.39.168.88.168.433 0 .765-.129t.492-.351q.164-.227.164-.492 0-.27-.156-.47-.157-.202-.516-.34-.23-.089-1.02-.276-.788-.192-1.105-.36-.41-.215-.613-.531-.2-.32-.2-.715 0-.433.247-.808.246-.38.718-.575.473-.195 1.051-.195.637 0 1.121.207.489.203.75.602.262.398.282.902l-.727.055q-.059-.543-.398-.82-.336-.278-.997-.278-.687 0-1.003.254-.313.25-.313.605 0 .309.223.508.218.2 1.14.41.926.207 1.27.364.5.23.738.586.238.351.238.812 0 .457-.261.863-.262.403-.754.63-.488.222-1.102.222-.777 0-1.304-.227-.524-.226-.825-.68-.297-.456-.312-1.03zm9.004 1.163v.676h-3.785q-.008-.254.082-.488.144-.387.46-.762.32-.375.922-.867.934-.766 1.262-1.21.328-.45.328-.849 0-.418-.3-.703-.297-.289-.778-.289-.508 0-.812.305-.305.305-.309.844l-.723-.074q.075-.81.559-1.231.484-.426 1.3-.426.825 0 1.305.457t.48 1.133q0 .344-.14.676-.14.332-.468.7-.325.366-1.082 1.007-.633.531-.813.723-.18.187-.297.378zm.676-1.043v-.707h2.16v.707zm3.003 1.72v-5.727h1.141l1.356 4.054q.187.567.273.848.098-.312.305-.918l1.37-3.984h1.02v5.726h-.73v-4.793l-1.664 4.793h-.684l-1.656-4.875v4.875zm6.817 0v-5.727h.758v5.726zm2.086 0v-5.727h.777l3.008 4.496v-4.496h.727v5.726h-.778l-3.008-4.5v4.5zm5.914 0v-5.727h.758v5.726zm1.73-1.72v-.707h2.16v.707zm5.391 1.72h-.703v-4.481q-.254.242-.668.484-.41.242-.738.363v-.68q.59-.277 1.03-.671.442-.395.626-.766h.453z" id="text159" style="-inkscape-font-specification:'Arial, Normal'" transform="rotate(90)" aria-label="ESP32-S2-MINI-1" font-size="8" font-family="Arial" clip-rule="evenodd" fill-rule="evenodd" stroke-linejoin="round" stroke-miterlimit="2"/>
    </g>
  </g>
  <g id="g31" transform="translate(28.52)" fill="#d09600">
    <path id="3V" d="M284.82 8.559V5.287h-3.272v3.272z"/>
    <path id="P0" d="M269.882 8.559V5.287h-3.272v3.272z"/>
    <path id="P1" d="M254.944 8.559V5.287h-3.272v3.272z"/>
    <path id="P2" d="M240.007 8.559V5.287h-3.273v3.272z"/>
    <path id="P3" d="M225.069 8.559V5.287h-3.273v3.272z"/>
    <path id="P4" d="M210.131 8.559V5.287h-3.272v3.272z"/>
    <path id="P5" d="M195.193 8.559V5.287h-3.272v3.272z"/>
    <path id="P6" d="M180.255 8.559V5.287h-3.272v3.272z"/>
    <path id="P7" d="M165.317 8.559V5.287h-3.272v3.272z"/>
    <path id="P8" d="M150.379 8.559V5.287h-3.272v3.272z"/>
    <path id="P9" d="M135.441 8.559V5.287h-3.272v3.272z"/>
    <path id="P10" d="M120.503 8.559V5.287h-3.272v3.272z"/>
    <path id="P11" d="M105.566 8.559V5.287h-3.273v3.272z"/>
    <path id="P12" d="M90.628 8.559V5.287h-3.273v3.272z"/>
    <path id="P13" d="M75.69 8.559V5.287h-3.272v3.272z"/>
    <path id="P14" d="M60.752 8.559V5.287H57.48v3.272z"/>
    <path id="P15" d="M45.814 8.559V5.287h-3.272v3.272z"/>
    <path id="P16" d="M30.876 8.559V5.287h-3.272v3.272z"/>
    <path id="P17" d="M15.938 8.559V5.287h-3.272v3.272z"/>
    <path id="5V" d="M1 8.559V5.287h-3.272v3.272z"/>
    <path id="GND" d="M-13.938 8.559V5.287h-3.272v3.272z" fill-opacity=".5"/>
  </g>
  <g id="g32" transform="translate(28.52)">
    <path id="GND1" d="M285.101 157.776v-3.272h-3.272v3.272z" fill="#7e6116" fill-opacity="1"/>
    <path id="EN" d="M270.163 157.776v-3.272h-3.272v3.272z" fill="#d09600"/>
    <path id="P46" d="M255.225 157.776v-3.272h-3.272v3.272z" fill="#d09600"/>
    <path id="P45" d="M240.287 157.776v-3.272h-3.272v3.272z" fill="#d09600"/>
    <path id="RX" d="M225.349 157.776v-3.272h-3.272v3.272z" fill="#d09600"/>
    <path id="TX" d="M210.412 157.776v-3.272h-3.273v3.272z" fill="#d09600"/>
    <path id="P42" d="M195.474 157.776v-3.272h-3.272v3.272z" fill="#d09600"/>
    <path id="P41" d="M180.536 157.776v-3.272h-3.272v3.272z" fill="#d09600"/>
    <path id="P40" d="M165.598 157.776v-3.272h-3.272v3.272z" fill="#d09600"/>
    <path id="P39" d="M150.66 157.776v-3.272h-3.272v3.272z" fill="#d09600"/>
    <path id="P38" d="M135.722 157.776v-3.272h-3.272v3.272z" fill="#d09600"/>
    <path id="P37" d="M120.784 157.776v-3.272h-3.272v3.272z" fill="#d09600"/>
    <path id="P36" d="M105.846 157.776v-3.272h-3.272v3.272z" fill="#d09600"/>
    <path id="P35" d="M90.909 157.776v-3.272h-3.273v3.272z" fill="#d09600"/>
    <path id="P34" d="M75.971 157.776v-3.272h-3.273v3.272z" fill="#d09600"/>
    <path id="P33" d="M61.033 157.776v-3.272h-3.272v3.272z" fill="#d09600"/>
    <path id="P26" d="M46.095 157.776v-3.272h-3.272v3.272z" fill="#d09600"/>
    <path id="P21" d="M31.157 157.776v-3.272h-3.272v3.272z" fill="#d09600"/>
    <path id="P20" d="M16.219 157.776v-3.272h-3.272v3.272z" fill="#d09600"/>
    <path id="P19" d="M1.281 157.776v-3.272h-3.272v3.272z" fill="#d09600"/>
    <path id="P18" d="M-13.657 157.776v-3.272h-3.272v3.272z" fill="#d09600"/>
    <path d="M-16.738 150.97h-1.098v-4.136q-.601.562-1.418.832v-.996q.43-.141.934-.532.504-.394.691-.918h.89zm2.582-3.09q-.426-.18-.621-.492-.192-.316-.192-.691 0-.64.446-1.059.449-.418 1.273-.418.816 0 1.266.418.453.418.453 1.059 0 .398-.207.71-.207.31-.582.473.476.192.722.56.25.366.25.847 0 .793-.507 1.289-.504.496-1.344.496-.781 0-1.3-.41-.614-.485-.614-1.328 0-.465.23-.852.23-.39.727-.602zm.226-1.105q0 .328.184.512.188.183.496.183.313 0 .5-.183.188-.188.188-.516 0-.309-.188-.492-.184-.188-.488-.188-.317 0-.504.188-.188.187-.188.496zm-.101 2.453q0 .453.23.707.235.254.582.254.34 0 .563-.242.223-.246.223-.707 0-.403-.227-.645-.227-.246-.574-.246-.403 0-.602.278-.195.277-.195.601zm12.86 1.742H-2.27v-4.136q-.602.562-1.418.832v-.996q.43-.141.933-.532.504-.394.692-.918h.89zm1.663-1.324l1.063-.117q.039.324.203.48.164.157.433.157.34 0 .579-.313.238-.312.304-1.297-.414.48-1.035.48-.676 0-1.168-.519-.488-.523-.488-1.36 0-.87.516-1.402.52-.535 1.32-.535.87 0 1.43.676.558.672.558 2.215 0 1.57-.582 2.266-.582.695-1.516.695-.671 0-1.085-.356-.415-.359-.532-1.07zm2.485-2.398q0-.532-.246-.825-.243-.293-.563-.293-.305 0-.508.243-.199.238-.199.785 0 .554.219.816.219.258.547.258.316 0 .53-.25.22-.25.22-.734zm12.316 2.703v1.02h-3.848q.063-.579.375-1.094.313-.52 1.235-1.375.742-.692.91-.938.227-.34.227-.672 0-.367-.2-.562-.195-.2-.543-.2-.343 0-.547.207-.203.208-.234.688l-1.094-.11q.098-.906.614-1.3.515-.395 1.289-.395.847 0 1.332.457.484.457.484 1.137 0 .387-.14.738-.137.348-.438.73-.2.255-.719.731-.52.477-.66.633-.137.156-.223.305zm2.598-4.73q.832 0 1.3.593.56.703.56 2.332 0 1.625-.563 2.336-.465.586-1.297.586-.836 0-1.348-.64-.512-.645-.512-2.294 0-1.617.563-2.328.465-.586 1.297-.586zm0 .91q-.2 0-.356.128-.156.125-.242.453-.113.426-.113 1.434t.101 1.387q.102.375.254.5.157.125.356.125.199 0 .355-.125.156-.13.242-.457.114-.422.114-1.43t-.102-1.383q-.101-.379-.258-.504-.152-.129-.351-.129zm10.746 3.82v1.02h-3.848q.063-.579.375-1.094.313-.52 1.235-1.375.742-.692.91-.938.226-.34.226-.672 0-.367-.199-.562-.195-.2-.543-.2-.344 0-.547.207-.203.208-.234.688l-1.094-.11q.098-.906.613-1.3.516-.395 1.29-.395.847 0 1.331.457.485.457.485 1.137 0 .387-.14.738-.138.348-.438.73-.2.255-.72.731-.519.477-.66.633-.136.156-.222.305zm3.55 1.02H31.09v-4.137q-.602.562-1.418.832v-.996q.43-.141.934-.532.503-.394.691-.918h.89zm12.016-1.02v1.02h-3.847q.062-.579.375-1.094.312-.52 1.234-1.375.742-.692.91-.938.227-.34.227-.672 0-.367-.2-.562-.195-.2-.543-.2-.343 0-.546.207-.204.208-.235.688l-1.094-.11q.098-.906.614-1.3.515-.395 1.289-.395.847 0 1.332.457.484.457.484 1.137 0 .387-.14.738-.137.348-.438.73-.2.255-.719.731-.52.477-.66.633-.137.156-.222.305zm4.461-3.305l-1.062.117q-.04-.328-.203-.484-.165-.156-.426-.156-.348 0-.59.312-.238.313-.3 1.3.41-.483 1.019-.483.687 0 1.175.523.493.523.493 1.352 0 .878-.516 1.41-.516.531-1.324.531-.867 0-1.426-.672-.559-.676-.559-2.21 0-1.575.582-2.27.582-.696 1.512-.696.652 0 1.078.367.43.364.547 1.06zm-2.488 2.395q0 .535.246.828.246.289.562.289.305 0 .508-.238.203-.239.203-.782 0-.558-.218-.816-.22-.262-.547-.262-.317 0-.535.25-.22.246-.22.73zm9.848.41l1.062-.13q.05.407.273.622.223.215.54.215.34 0 .57-.258.234-.258.234-.695 0-.414-.222-.657-.223-.242-.543-.242-.211 0-.504.082l.12-.894q.446.011.68-.192.235-.207.235-.547 0-.289-.172-.46-.172-.172-.457-.172-.281 0-.48.195-.2.195-.243.57l-1.011-.172q.105-.52.316-.828.215-.312.594-.488.383-.18.855-.18.809 0 1.297.516.402.422.402.953 0 .754-.824 1.203.492.106.785.473.297.367.297.887 0 .753-.55 1.285-.551.53-1.372.53-.777 0-1.289-.444-.511-.45-.593-1.172zm4.449 0l1.062-.13q.051.407.274.622.222.215.539.215.34 0 .57-.258.234-.258.234-.695 0-.414-.222-.657-.223-.242-.543-.242-.211 0-.504.082l.121-.894q.445.011.68-.192.234-.207.234-.547 0-.289-.172-.46-.172-.172-.457-.172-.281 0-.48.195-.2.195-.242.57l-1.012-.172q.105-.52.316-.828.215-.312.594-.488.383-.18.855-.18.809 0 1.297.516.403.422.403.953 0 .754-.825 1.203.493.106.786.473.296.367.296.887 0 .753-.55 1.285-.551.531-1.371.531-.778 0-1.29-.445-.511-.45-.593-1.172zm8.894 0l1.063-.13q.05.407.273.622.223.215.54.215.34 0 .57-.258.234-.258.234-.695 0-.414-.223-.657-.222-.242-.543-.242-.21 0-.504.082l.122-.894q.445.011.68-.192.234-.207.234-.547 0-.289-.172-.46-.172-.172-.457-.172-.282 0-.48.195-.2.195-.243.57l-1.012-.172q.106-.52.317-.828.215-.312.593-.488.383-.18.856-.18.809 0 1.297.516.402.422.402.953 0 .754-.824 1.203.492.106.785.473.297.367.297.887 0 .753-.55 1.285-.552.53-1.372.53-.777 0-1.289-.444-.512-.45-.594-1.172zm6.64 1.52v-1.153h-2.343v-.961l2.485-3.637h.921v3.633h.711v.965h-.71v1.152zm0-2.118v-1.957l-1.316 1.957zm8.927.598l1.062-.13q.051.407.274.622.222.215.539.215.34 0 .57-.258.234-.258.234-.695 0-.414-.222-.657-.223-.242-.543-.242-.211 0-.504.082l.12-.894q.446.011.68-.192.235-.207.235-.547 0-.289-.172-.46-.172-.172-.457-.172-.281 0-.48.195-.2.195-.243.57l-1.011-.172q.105-.52.316-.828.215-.312.594-.488.383-.18.855-.18.809 0 1.297.516.403.422.403.953 0 .754-.825 1.203.493.106.785.473.297.367.297.887 0 .753-.55 1.285-.551.53-1.372.53-.777 0-1.289-.444-.511-.45-.593-1.172zm4.504.047l1.093-.114q.047.371.278.59.23.215.53.215.345 0 .583-.277.238-.282.238-.844 0-.527-.238-.79-.234-.265-.613-.265-.473 0-.848.418l-.89-.129.562-2.98h2.902v1.027h-2.07l-.172.973q.367-.184.75-.184.73 0 1.238.532.508.53.508 1.378 0 .707-.41 1.262-.559.758-1.55.758-.794 0-1.294-.426t-.597-1.144zm11.062-.047l1.063-.13q.05.407.273.622.223.215.54.215.339 0 .57-.258.234-.258.234-.695 0-.414-.223-.657-.223-.242-.543-.242-.21 0-.504.082l.121-.894q.446.011.68-.192.234-.207.234-.547 0-.289-.171-.46-.172-.172-.458-.172-.28 0-.48.195-.2.195-.242.57l-1.012-.172q.106-.52.317-.828.214-.312.593-.488.383-.18.856-.18.808 0 1.297.516.402.422.402.953 0 .754-.824 1.203.492.106.785.473.297.367.297.887 0 .753-.551 1.285-.55.53-1.371.53-.777 0-1.29-.444-.51-.45-.593-1.172zm8.207-2.805l-1.062.117q-.04-.328-.203-.484-.165-.156-.426-.156-.348 0-.59.312-.238.313-.3 1.3.41-.483 1.019-.483.687 0 1.175.523.493.523.493 1.352 0 .878-.516 1.41-.516.531-1.324.531-.867 0-1.426-.672-.559-.676-.559-2.21 0-1.575.582-2.27.582-.696 1.512-.696.652 0 1.078.367.43.364.547 1.06zm-2.488 2.395q0 .535.246.828.246.289.562.289.305 0 .508-.238.203-.239.203-.782 0-.558-.218-.816-.22-.262-.547-.262-.317 0-.535.25-.22.246-.22.73zm9.848.41l1.062-.13q.05.407.273.622.223.215.54.215.34 0 .57-.258.234-.258.234-.695 0-.414-.222-.657-.223-.242-.543-.242-.211 0-.504.082l.12-.894q.446.011.68-.192.235-.207.235-.547 0-.289-.172-.46-.172-.172-.457-.172-.281 0-.48.195-.2.195-.243.57l-1.011-.172q.105-.52.316-.828.215-.312.594-.488.383-.18.855-.18.809 0 1.297.516.402.422.402.953 0 .754-.824 1.203.492.106.785.473.297.367.297.887 0 .753-.55 1.285-.551.53-1.372.53-.777 0-1.289-.444-.511-.45-.593-1.172zm4.488-3.11v-1.02h3.754v.798q-.465.457-.946 1.312-.48.856-.734 1.82-.25.961-.246 1.72h-1.059q.028-1.188.489-2.423.464-1.234 1.238-2.207zm8.855 3.11l1.063-.13q.05.407.273.622.223.215.54.215.34 0 .57-.258.234-.258.234-.695 0-.414-.223-.657-.222-.242-.543-.242-.21 0-.504.082l.122-.894q.445.011.68-.192.234-.207.234-.547 0-.289-.172-.46-.172-.172-.457-.172-.282 0-.48.195-.2.195-.243.57l-1.012-.172q.106-.52.317-.828.215-.312.593-.488.383-.18.856-.18.809 0 1.297.516.402.422.402.953 0 .754-.824 1.203.492.106.785.473.297.367.297.887 0 .753-.55 1.285-.552.53-1.372.53-.777 0-1.289-.444-.512-.45-.594-1.172zm5.43-1.57q-.426-.18-.621-.493-.192-.316-.192-.691 0-.64.446-1.059.449-.418 1.273-.418.817 0 1.266.418.453.418.453 1.059 0 .398-.207.71-.207.31-.582.473.476.192.723.56.25.366.25.847 0 .793-.508 1.289-.504.496-1.344.496-.781 0-1.3-.41-.614-.485-.614-1.328 0-.465.23-.852.23-.39.727-.602zm.227-1.106q0 .328.183.512.188.183.496.183.313 0 .5-.183.188-.188.188-.516 0-.309-.188-.492-.183-.188-.488-.188-.316 0-.504.188-.187.187-.187.496zm-.102 2.453q0 .453.23.707.235.254.582.254.34 0 .563-.242.223-.246.223-.707 0-.403-.227-.645-.227-.246-.574-.246-.403 0-.602.278-.195.277-.195.601zm10.012.223l1.062-.13q.051.407.274.622.222.215.539.215.34 0 .57-.258.234-.258.234-.695 0-.414-.222-.657-.223-.242-.543-.242-.211 0-.504.082l.12-.894q.446.011.68-.192.235-.207.235-.547 0-.289-.172-.46-.172-.172-.457-.172-.281 0-.48.195-.2.195-.243.57l-1.011-.172q.105-.52.316-.828.215-.312.594-.488.383-.18.855-.18.809 0 1.297.516.403.422.403.953 0 .754-.825 1.203.493.106.785.473.297.367.297.887 0 .753-.55 1.285-.551.53-1.372.53-.777 0-1.289-.444-.511-.45-.593-1.172zm4.511.195l1.063-.117q.039.324.203.48.164.157.434.157.34 0 .578-.313.238-.312.304-1.297-.414.48-1.035.48-.676 0-1.168-.519-.488-.523-.488-1.36 0-.87.516-1.402.52-.535 1.32-.535.871 0 1.43.676.558.672.558 2.215 0 1.57-.582 2.266-.582.695-1.515.695-.672 0-1.086-.356-.414-.359-.532-1.07zm2.485-2.398q0-.532-.246-.825-.243-.293-.563-.293-.305 0-.508.243-.199.238-.199.785 0 .554.219.816.219.258.547.258.316 0 .531-.25.219-.25.219-.734zm8.539 3.722v-1.152h-2.344v-.961l2.484-3.637h.922v3.633h.711v.965h-.71v1.152zm0-2.117v-1.957l-1.317 1.957zm4.152-3.633q.832 0 1.3.594.56.703.56 2.332 0 1.625-.563 2.336-.465.586-1.297.586-.836 0-1.347-.64-.512-.645-.512-2.294 0-1.617.562-2.328.465-.586 1.297-.586zm0 .91q-.2 0-.355.13-.157.124-.242.452-.114.426-.114 1.434t.102 1.387q.101.375.254.5.156.125.355.125.2 0 .356-.125.156-.13.242-.457.113-.422.113-1.43t-.101-1.383q-.102-.379-.258-.504-.153-.129-.352-.129zm11.414 4.84v-1.152h-2.344v-.961l2.485-3.637h.922v3.633h.71v.965h-.71v1.152zm0-2.117v-1.957l-1.316 1.957zm5.106 2.117h-1.098v-4.136q-.602.562-1.418.832v-.996q.43-.141.934-.532.504-.394.691-.918h.89zm10.46 0v-1.152h-2.343v-.961l2.484-3.637h.922v3.633h.711v.965h-.71v1.152zm0-2.117v-1.957l-1.316 1.957zm6.005 1.098v1.02H193.8q.062-.579.375-1.094.312-.52 1.234-1.375.742-.692.91-.938.227-.34.227-.672 0-.367-.2-.562-.195-.2-.542-.2-.344 0-.547.207-.203.208-.234.688l-1.094-.11q.097-.906.613-1.3.516-.395 1.29-.395.847 0 1.331.457.485.457.485 1.137 0 .387-.141.738-.137.348-.438.73-.199.255-.718.731-.52.477-.66.633-.137.156-.223.305zm6.718 1.02v-4.759h-1.699v-.968h4.55v.968h-1.694v4.758zm3.016 0l1.957-2.989-1.774-2.738h1.352l1.148 1.84 1.125-1.84h1.34l-1.78 2.781 1.956 2.945h-1.394l-1.27-1.98-1.273 1.98zm10.367 0v-5.727h2.434q.918 0 1.332.156.418.152.668.547.25.394.25.902 0 .645-.38 1.067-.378.418-1.132.527.375.219.617.48.246.262.66.93l.7 1.117h-1.383l-.836-1.246q-.446-.668-.61-.84-.164-.175-.347-.238-.184-.066-.582-.066h-.235v2.39zm1.156-3.305h.856q.832 0 1.039-.07.207-.071.324-.243.117-.172.117-.43 0-.289-.156-.464-.152-.18-.434-.227-.14-.02-.843-.02h-.903zm4.035 3.304l1.958-2.988-1.774-2.738h1.352l1.148 1.84 1.125-1.84h1.34l-1.781 2.781 1.957 2.945h-1.395l-1.27-1.98-1.273 1.98zm12.274 0v-1.152h-2.344v-.961l2.485-3.637h.921v3.633h.711v.965h-.71v1.152zm0-2.117v-1.957l-1.316 1.957zm2.312.645l1.094-.114q.047.371.278.59.23.215.53.215.345 0 .583-.277.238-.282.238-.844 0-.527-.238-.79-.235-.265-.613-.265-.473 0-.848.418l-.89-.129.562-2.98h2.902v1.027h-2.07l-.172.973q.367-.184.75-.184.73 0 1.238.532.508.53.508 1.378 0 .707-.41 1.262-.559.758-1.55.758-.794 0-1.294-.426t-.598-1.144zm13.254 1.472v-1.152h-2.343v-.961l2.484-3.637h.922v3.633h.71v.965h-.71v1.152zm0-2.117v-1.957l-1.316 1.957zm6.016-2.207l-1.063.117q-.039-.328-.203-.484-.164-.156-.425-.156-.348 0-.59.312-.239.313-.301 1.3.41-.483 1.02-.483.687 0 1.175.523.492.523.492 1.352 0 .878-.515 1.41-.516.531-1.324.531-.868 0-1.426-.672-.559-.676-.559-2.21 0-1.575.582-2.27.582-.696 1.512-.696.652 0 1.078.367.43.364.547 1.06zm-2.488 2.395q0 .535.246.828.246.289.562.289.305 0 .508-.238.203-.239.203-.782 0-.558-.219-.816-.218-.262-.546-.262-.317 0-.536.25-.218.246-.218.73zm5.683 1.93v-5.727h4.246v.968h-3.09v1.27h2.876v.965h-2.875v1.558h3.199v.965zm5.348 0v-5.727h1.125l2.344 3.824v-3.824h1.074v5.726h-1.16l-2.309-3.734v3.734zm10.652-2.106v-.965h2.492v2.281q-.363.352-1.054.621-.688.266-1.395.266-.898 0-1.566-.375-.668-.379-1.004-1.078-.336-.703-.336-1.528 0-.894.375-1.59.375-.695 1.098-1.066.55-.285 1.37-.285 1.067 0 1.665.45.601.445.773 1.234l-1.148.215q-.121-.422-.457-.665-.332-.246-.832-.246-.758 0-1.207.48-.446.481-.446 1.427 0 1.02.454 1.53.453.509 1.187.509.363 0 .727-.14.367-.145.629-.349v-.726zm3.57 2.105v-5.726h1.126l2.343 3.824v-3.824h1.075v5.726h-1.16l-2.31-3.734v3.734zm5.762-5.726h2.114q.714 0 1.09.11.503.148.863.526.36.38.547.93.187.547.187 1.352 0 .707-.176 1.218-.215.625-.613 1.012-.3.293-.812.457-.383.121-1.024.121h-2.176zm1.157.968v3.793h.863q.484 0 .7-.054.28-.07.464-.239.187-.167.305-.55.117-.387.117-1.051 0-.664-.117-1.02-.118-.355-.329-.554-.21-.2-.535-.27-.242-.055-.949-.055z" id="text164" style="-inkscape-font-specification:'Arial, Bold'" aria-label="18 19 20 21 26 33 34 35 36 37 38 39 40 41 42 TX RX 45 46 EN GND" font-weight="700" font-size="8" font-family="Arial" fill="#fff"/>
  </g>
  <path d="M38.53 104.409V60.535H0v43.874z" id="path32" fill="#c7c7c7"/>
  <g id="g36" transform="translate(28.52)">
    <path d="M50.056 133.266v-8.982H9.737v8.982z" id="path35" fill="#c7c7c7"/>
    <path id="BTN_BOOT" d="M40.685 137.218v-16.886H16.659v16.886z" fill="#969696"/>
    <path d="M35.262 128.775a5.368 5.368 0 01-5.365 5.365 5.368 5.368 0 01-5.366-5.365 5.368 5.368 0 015.366-5.365 5.368 5.368 0 015.365 5.365z" id="path36"/>
  </g>
  <g id="g34" transform="translate(28.52)" clip-rule="evenodd" fill-rule="evenodd" stroke-linejoin="round" stroke-miterlimit="2">
    <path d="M50.056 39.109v-8.983H9.737v8.983z" id="path33" fill="#c7c7c7"/>
    <path id="BTN_RESET" d="M40.685 43.061V26.174H16.659v16.887z" fill="#969696"/>
    <path d="M35.262 34.617a5.368 5.368 0 01-5.365 5.366 5.369 5.369 0 01-5.366-5.366 5.368 5.368 0 015.366-5.365 5.368 5.368 0 015.365 5.365z" id="path34"/>
  </g>
  <g id="g70" transform="translate(28.52)">
    <g id="g43" fill="#adadad">
      <path d="M88.101 98.514v-2.038h-1.413v2.038z" id="path37"/>
      <path d="M85.217 98.514v-2.038h-1.413v2.038z" id="path38"/>
      <path d="M82.333 98.514v-2.038H80.92v2.038z" id="path39"/>
      <path d="M79.449 98.514v-2.038h-1.414v2.038z" id="path40"/>
      <path d="M76.565 98.514v-2.038h-1.414v2.038z" id="path41"/>
      <path d="M73.68 98.514v-2.038h-1.413v2.038z" id="path42"/>
      <path d="M70.796 98.514v-2.038h-1.413v2.038z" id="path43"/>
    </g>
    <g id="g50" fill="#adadad">
      <path d="M88.502 66.646v-2.038h-1.413v2.038z" id="path44"/>
      <path d="M85.618 66.646v-2.038h-1.413v2.038z" id="path45"/>
      <path d="M82.734 66.646v-2.038H81.32v2.038z" id="path46"/>
      <path d="M79.85 66.646v-2.038h-1.414v2.038z" id="path47"/>
      <path d="M76.965 66.646v-2.038h-1.413v2.038z" id="path48"/>
      <path d="M74.081 66.646v-2.038h-1.413v2.038z" id="path49"/>
      <path d="M71.197 66.646v-2.038h-1.413v2.038z" id="path50"/>
    </g>
    <g id="g56" fill="#adadad">
      <path id="rect50" d="M62.125 72.202h2.038v1.413h-2.038z"/>
      <path id="rect51" d="M62.125 75.086h2.038v1.413h-2.038z"/>
      <path id="rect52" d="M62.125 77.97h2.038v1.413h-2.038z"/>
      <path id="rect53" d="M62.125 80.854h2.038v1.413h-2.038z"/>
      <path id="rect54" d="M62.125 83.739h2.038v1.413h-2.038z"/>
      <path id="rect55" d="M62.125 86.623h2.038v1.413h-2.038z"/>
      <path id="rect56" d="M62.125 89.507h2.038v1.413h-2.038z"/>
    </g>
    <g id="g63" fill="#adadad">
      <path id="rect57" d="M93.321 72.202h2.038v1.413h-2.038z"/>
      <path id="rect58" d="M93.321 75.086h2.038v1.413h-2.038z"/>
      <path id="rect59" d="M93.321 77.97h2.038v1.413h-2.038z"/>
      <path id="rect60" d="M93.321 80.854h2.038v1.413h-2.038z"/>
      <path id="rect61" d="M93.321 83.739h2.038v1.413h-2.038z"/>
      <path id="rect62" d="M93.321 86.623h2.038v1.413h-2.038z"/>
      <path id="rect63" d="M93.321 89.507h2.038v1.413h-2.038z"/>
    </g>
    <g id="g69" fill="#adadad">
      <path d="M88.101 66.646v-2.038h-1.413v2.038z" id="path63"/>
      <path d="M85.217 66.646v-2.038h-1.413v2.038z" id="path64"/>
      <path d="M82.333 66.646v-2.038H80.92v2.038z" id="path65"/>
      <path d="M79.449 66.646v-2.038h-1.414v2.038z" id="path66"/>
      <path d="M76.565 66.646v-2.038h-1.414v2.038z" id="path67"/>
      <path d="M73.68 66.646v-2.038h-1.413v2.038z" id="path68"/>
      <path d="M70.796 66.646v-2.038h-1.413v2.038z" id="path69"/>
    </g>
    <path d="M93.321 96.476v-29.83H64.163v29.83z" id="path70"/>
  </g>
  <path d="M82.093 30.228h5.761v4.496h-.974v-3.272h-1.277v3.044h-.971v-3.044h-1.568v3.387h-.971z" id="path112" fill="#fff" fill-rule="nonzero"/>
  <path d="M82.093 35.89h5.761v1.191l-3.847 2.481h3.847v1.137h-5.761v-1.228l3.757-2.444h-3.757z" id="path113" fill="#fff" fill-rule="nonzero"/>
  <path d="M89.106 117.926v2.423c0 .48-.019.837-.057 1.073a1.632 1.632 0 01-.237.633 1.511 1.511 0 01-.482.465c-.2.124-.425.186-.674.186-.27 0-.517-.076-.743-.229a1.402 1.402 0 01-.506-.623c-.103.37-.277.654-.523.852a1.34 1.34 0 01-.869.298c-.262 0-.516-.064-.764-.192a1.566 1.566 0 01-.593-.526 1.787 1.787 0 01-.273-.82c-.021-.204-.035-.697-.04-1.477v-2.063zm-.959 1.224h-1.332v.802c0 .477.007.773.02.889.023.21.092.374.206.494.114.12.264.18.45.18a.613.613 0 00.434-.155c.112-.103.179-.257.203-.461.013-.121.019-.47.019-1.046zm-2.291 0h-1.54v1.133c0 .441.012.721.035.839.032.182.108.33.23.445a.687.687 0 00.489.171.73.73 0 00.441-.132.75.75 0 00.263-.382c.055-.167.082-.529.082-1.086z" id="path114" fill="#c6c6c6" fill-rule="nonzero"/>
  <path d="M85.491 123.761c.367 0 .722.095 1.065.285.343.19.605.46.786.809.181.348.271.738.271 1.168 0 .664-.205 1.209-.615 1.633-.41.425-.928.637-1.554.637-.632 0-1.155-.214-1.57-.643-.415-.429-.623-.968-.623-1.619 0-.402.086-.786.259-1.152.173-.365.427-.643.761-.833.334-.19.74-.285 1.22-.285zm-.059 1.191c-.414 0-.731.103-.951.31-.22.207-.33.462-.33.765s.11.558.33.763c.22.205.54.308.959.308.408 0 .723-.103.943-.308.22-.205.33-.46.33-.763s-.11-.558-.33-.765c-.22-.207-.537-.31-.951-.31z" id="path115" fill="#c6c6c6" fill-rule="nonzero"/>
  <path d="M85.491 128.934c.367 0 .722.095 1.065.286.343.19.605.459.786.808.181.349.271.738.271 1.168 0 .665-.205 1.209-.615 1.634-.41.424-.928.637-1.554.637-.632 0-1.155-.215-1.57-.643-.415-.429-.623-.969-.623-1.619 0-.403.086-.787.259-1.152.173-.365.427-.643.761-.833.334-.191.74-.286 1.22-.286zm-.059 1.191c-.414 0-.731.104-.951.31-.22.207-.33.462-.33.765a1 1 0 00.33.763c.22.206.54.308.959.308.408 0 .723-.102.943-.308a1 1 0 00.33-.763c0-.303-.11-.558-.33-.765-.22-.206-.537-.31-.951-.31z" id="path116" fill="#c6c6c6" fill-rule="nonzero"/>
  <path d="M87.519 136.39h-.881v-.794h-1.682c-.34 0-.539.008-.595.023a.24.24 0 00-.139.104.335.335 0 00-.055.196c0 .107.035.263.106.467l-.857.1a2.424 2.424 0 01-.165-.919c0-.209.033-.398.1-.566a.824.824 0 01.259-.37c.107-.079.25-.133.431-.164.128-.024.388-.037.778-.037h1.819v-.533h.881v.533h.829l.644 1.166h-1.473z" id="path117" fill="#c6c6c6" fill-rule="nonzero"/>
  <g id="g122" transform="translate(28.52)">
    <path d="M134.901 72.69V61.125h-4.721V72.69z" id="path118" fill="#adadad"/>
    <path d="M128.381 102.06V90.494h-17.948v11.566z" id="path119" fill="#adadad"/>
    <path d="M121.674 72.69V61.125h-4.721V72.69z" id="path120" fill="#adadad"/>
    <path d="M108.617 72.69V61.125h-4.721V72.69z" id="path121" fill="#adadad"/>
    <path d="M136.708 90.494V72.69h-34.79v17.804z" id="path122" fill="#100b00"/>
  </g>
  <path id="LED" d="M115.73 38.79v-5.122h-7.406v5.122z" fill="#ff000c"/>
  <path d="M316.638 14.049l-1.063.129q-.05-.406-.273-.621-.223-.215-.54-.215-.34 0-.57.258-.234.258-.234.695 0 .414.223.656.222.243.543.243.21 0 .504-.082l-.122.894q-.445-.012-.68.191-.234.207-.234.547 0 .29.172.461.172.172.457.172.282 0 .48-.195.2-.195.243-.57l1.012.171q-.106.52-.317.829-.215.312-.594.488-.382.18-.855.18-.809 0-1.297-.516-.402-.422-.402-.953 0-.754.824-1.203-.492-.106-.785-.473-.297-.367-.297-.887 0-.754.55-1.285.552-.531 1.372-.531.777 0 1.289.445.512.45.594 1.172zm-6.192-1.52l2.047 5.727h-1.254l-1.449-4.238-1.402 4.238h-1.227l2.05-5.727zm-3.593 1.52l-1.063.129q-.05-.406-.273-.621-.223-.215-.54-.215-.34 0-.57.258-.234.258-.234.695 0 .414.222.656.223.243.543.243.211 0 .504-.082l-.12.894q-.446-.012-.68.191-.235.207-.235.547 0 .29.172.461.172.172.457.172.281 0 .48-.195.2-.195.243-.57l1.011.171q-.105.52-.316.829-.215.312-.594.488-.382.18-.855.18-.809 0-1.297-.516-.402-.422-.402-.953 0-.754.824-1.203-.492-.106-.785-.473-.297-.367-.297-.887 0-.754.55-1.285.551-.531 1.372-.531.777 0 1.289.445.511.45.594 1.172zm-10.79 4.23q-.832 0-1.3-.593-.559-.703-.559-2.332 0-1.625.563-2.336.464-.586 1.296-.586.836 0 1.348.64.512.645.512 2.293 0 1.618-.563 2.329-.465.585-1.297.585zm0-.91q.2 0 .356-.129.156-.125.242-.453.113-.425.113-1.433t-.101-1.387q-.102-.375-.254-.5-.156-.125-.356-.125-.199 0-.355.125-.156.129-.242.457-.113.422-.113 1.43t.101 1.383q.102.378.258.503.152.13.351.13zm-14.293-4.84h1.098v4.137q.602-.562 1.418-.832v.996q-.43.14-.933.532-.504.394-.692.917h-.89zm-16.46 1.02v-1.02h3.847q-.062.579-.375 1.094-.312.52-1.234 1.375-.742.692-.91.938-.227.34-.227.672 0 .367.2.562.195.2.542.2.344 0 .547-.208.203-.207.235-.687l1.093.11q-.097.905-.613 1.3-.516.394-1.289.394-.848 0-1.332-.457-.484-.457-.484-1.136 0-.387.14-.739.137-.347.438-.73.199-.254.718-.73.52-.477.66-.633.137-.157.223-.305zm-11.817.5l-1.062.129q-.051-.406-.274-.621-.222-.215-.539-.215-.34 0-.57.258-.235.258-.235.695 0 .414.223.656.223.243.543.243.211 0 .504-.082l-.121.894q-.445-.012-.68.191-.234.207-.234.547 0 .29.172.461.172.172.457.172.281 0 .48-.195.2-.195.242-.57l1.012.171q-.105.52-.316.829-.215.312-.594.488-.383.18-.856.18-.808 0-1.296-.516-.403-.422-.403-.953 0-.754.824-1.203-.492-.106-.785-.473-.297-.367-.297-.887 0-.754.551-1.285.551-.531 1.371-.531.778 0 1.29.445.511.45.593 1.172zm-15.531-1.52v1.153h2.344v.96l-2.485 3.637h-.922v-3.632h-.71v-.965h.71v-1.153zm0 2.118v1.957l1.316-1.957zm-13.426-.645l-1.094.113q-.047-.37-.277-.59-.23-.214-.531-.214-.344 0-.582.277-.239.281-.239.844 0 .527.239.789.234.266.613.266.473 0 .848-.418l.89.128-.562 2.98h-2.903v-1.026h2.07l.173-.973q-.368.184-.75.184-.73 0-1.239-.532-.507-.531-.507-1.379 0-.707.41-1.261.558-.758 1.55-.758.793 0 1.293.426.5.425.598 1.144zm-19.266 2.852l1.063-.117q.04.328.203.484.164.156.426.156.348 0 .59-.312.238-.313.3-1.301-.41.484-1.019.484-.688 0-1.176-.523-.492-.524-.492-1.352 0-.879.516-1.41.515-.531 1.324-.531.867 0 1.426.672.558.675.558 2.21 0 1.575-.582 2.27-.582.695-1.512.695-.652 0-1.078-.367-.43-.363-.547-1.058zm2.489-2.395q0-.535-.246-.828-.246-.289-.563-.289-.305 0-.508.238-.203.239-.203.782 0 .558.219.816.219.262.547.262.316 0 .535-.25.219-.246.219-.73zm-14.332 2.7v1.019h-3.754v-.797q.465-.457.945-1.312.48-.856.735-1.82.25-.962.246-1.72h1.058q-.027 1.188-.488 2.422-.465 1.235-1.238 2.207zm-14.282-1.54q.426.18.622.493.191.316.191.69 0 .642-.445 1.06-.45.417-1.274.417-.816 0-1.265-.417-.454-.418-.454-1.06 0-.398.208-.71.207-.309.582-.473-.477-.191-.723-.558-.25-.367-.25-.848 0-.793.508-1.289.504-.496 1.343-.496.782 0 1.301.41.614.484.614 1.328 0 .465-.231.852-.23.39-.727.601zm-.226 1.106q0-.328-.184-.512-.187-.184-.496-.184-.312 0-.5.184-.187.188-.187.516 0 .308.187.492.184.187.489.187.316 0 .503-.187.188-.188.188-.496zm.101-2.453q0-.453-.23-.707-.234-.254-.582-.254-.34 0-.563.242-.222.246-.222.707 0 .402.226.644.227.247.575.247.402 0 .601-.278.195-.277.195-.601zm-14.52-.418l-1.062.117q-.039-.324-.203-.48-.164-.157-.433-.157-.34 0-.578.313-.239.312-.305 1.297.414-.48 1.035-.48.676 0 1.168.519.488.523.488 1.359 0 .871-.515 1.402-.52.535-1.32.535-.872 0-1.43-.675-.559-.672-.559-2.215 0-1.57.582-2.266.582-.695 1.516-.695.672 0 1.086.355.414.36.53 1.07zm-2.483 2.398q0 .531.246.824.242.293.562.293.305 0 .508-.242.2-.238.2-.785 0-.555-.22-.816-.218-.258-.546-.258-.317 0-.532.25-.218.25-.218.734zm-13.641-3.723h1.098v4.137q.601-.562 1.418-.832v.996q-.43.14-.934.532-.504.394-.691.917h-.891zm-3.496 5.75q-.832 0-1.3-.593-.56-.703-.56-2.332 0-1.625.563-2.336.465-.586 1.297-.586.836 0 1.348.64.511.645.511 2.293 0 1.618-.562 2.329-.465.585-1.297.585zm0-.91q.2 0 .355-.129.157-.125.243-.453.113-.425.113-1.433t-.102-1.387q-.101-.375-.254-.5-.156-.125-.355-.125-.2 0-.356.125-.156.129-.242.457-.113.422-.113 1.43t.101 1.383q.102.378.258.503.153.13.352.13zm-12.07-4.84h1.097v4.137q.602-.562 1.418-.832v.996q-.43.14-.933.532-.504.394-.692.917h-.89zm-4.008 0h1.097v4.137q.602-.562 1.418-.832v.996q-.43.14-.933.532-.504.394-.692.917h-.89zm-8.895 0h1.098v4.137q.601-.562 1.418-.832v.996q-.43.14-.934.532-.504.394-.691.917h-.89zm-5.347 1.02v-1.02h3.847q-.062.579-.375 1.094-.312.52-1.234 1.375-.742.692-.91.938-.227.34-.227.672 0 .367.2.562.195.2.542.2.344 0 .547-.208.203-.207.235-.687l1.093.11q-.097.905-.613 1.3-.516.394-1.29.394-.847 0-1.331-.457t-.484-1.136q0-.387.14-.739.137-.347.438-.73.199-.254.718-.73.52-.477.66-.633.137-.157.223-.305zm-10.22-1.02h1.098v4.137q.602-.562 1.418-.832v.996q-.43.14-.933.532-.504.394-.692.917h-.89zm-1.6 1.52l-1.063.129q-.051-.406-.274-.621-.222-.215-.539-.215-.34 0-.57.258-.234.258-.234.695 0 .414.222.656.223.243.543.243.211 0 .504-.082l-.121.894q-.445-.012-.68.191-.234.207-.234.547 0 .29.172.461.172.172.457.172.281 0 .48-.195.2-.195.242-.57l1.012.171q-.105.52-.316.829-.215.312-.594.488-.383.18-.855.18-.809 0-1.297-.516-.403-.422-.403-.953 0-.754.825-1.203-.493-.106-.786-.473-.296-.367-.296-.887 0-.754.55-1.285.551-.531 1.371-.531.778 0 1.29.445.511.45.593 1.172zm-11.743-1.52h1.098v4.137q.601-.562 1.418-.832v.996q-.43.14-.934.532-.504.394-.691.917h-.891zm-3.793 0v1.153h2.344v.96l-2.485 3.637h-.921v-3.632h-.711v-.965h.71v-1.153zm0 2.118v1.957l1.316-1.957zm-11.773-2.118h1.097v4.137q.602-.562 1.418-.832v.996q-.43.14-.933.532-.504.394-.692.917h-.89zm-1.657 1.473l-1.093.113q-.047-.37-.278-.59-.23-.214-.531-.214-.344 0-.582.277-.238.281-.238.844 0 .527.238.789.234.266.613.266.473 0 .848-.418l.89.128-.562 2.98h-2.902v-1.026h2.07l.172-.973q-.367.184-.75.184-.73 0-1.238-.532-.508-.531-.508-1.379 0-.707.41-1.261.559-.758 1.55-.758.794 0 1.294.426.5.425.597 1.144zm-13.91-1.473h1.098v4.137q.601-.562 1.418-.832v.996q-.43.14-.934.532-.504.394-.691.917h-.89zm-5.36 4.325l1.063-.117q.04.328.203.484.165.156.426.156.348 0 .59-.312.238-.313.3-1.301-.41.484-1.019.484-.687 0-1.175-.523-.493-.524-.493-1.352 0-.879.516-1.41.516-.531 1.324-.531.867 0 1.426.672.559.675.559 2.21 0 1.575-.582 2.27-.582.695-1.512.695-.652 0-1.078-.367-.43-.363-.547-1.058zm2.49-2.395q0-.535-.247-.828-.246-.289-.562-.289-.305 0-.508.238-.203.239-.203.782 0 .558.218.816.22.262.547.262.317 0 .535-.25.22-.246.22-.73zm-12.696-1.93h1.097v4.137q.602-.562 1.418-.832v.996q-.43.14-.933.532-.504.394-.692.917h-.89zm-1.64 4.63v1.019h-3.755v-.797q.465-.457.946-1.312.48-.856.734-1.82.25-.962.246-1.72h1.059q-.028 1.188-.489 2.422-.464 1.235-1.238 2.207zm-8.911-3.157l-1.094.113q-.047-.37-.277-.59-.23-.214-.531-.214-.344 0-.582.277-.239.281-.239.844 0 .527.239.789.234.266.613.266.473 0 .848-.418l.89.128-.562 2.98h-2.903v-1.026h2.07l.173-.973q-.368.184-.75.184-.73 0-1.239-.532-.508-.531-.508-1.379 0-.707.41-1.261.56-.758 1.551-.758.793 0 1.293.426.5.425.598 1.144zM27.61 12.53l2.047 5.727h-1.254l-1.449-4.238-1.402 4.238h-1.227l2.05-5.727zm-8.761 2.106v.965h-2.493V13.32q.364-.352 1.055-.622.688-.265 1.395-.265.898 0 1.566.375.668.379 1.004 1.078.336.703.336 1.527 0 .895-.375 1.59-.375.695-1.098 1.067-.55.285-1.37.285-1.067 0-1.665-.45-.601-.445-.773-1.234l1.148-.215q.121.422.457.664.332.246.832.246.758 0 1.207-.48.445-.48.445-1.426 0-1.02-.453-1.531-.453-.508-1.187-.508-.363 0-.727.14-.367.145-.629.348v.727zm-3.57-2.106v5.727h-1.126l-2.343-3.824v3.824h-1.075V12.53h1.16l2.31 3.735V12.53zm-5.762 5.727H7.403q-.715 0-1.09-.11-.503-.148-.863-.527t-.547-.93q-.187-.546-.187-1.35 0-.708.176-1.22.214-.625.613-1.011.3-.293.812-.457.383-.122 1.024-.122h2.176zm-1.157-.969v-3.793h-.863q-.484 0-.7.055-.28.07-.464.238-.188.168-.305.551-.117.387-.117 1.05 0 .665.117 1.02.117.356.328.555.211.2.536.27.242.054.949.054z" id="text160" style="-inkscape-font-specification:'Arial, Bold'" aria-label="3V3 0 1 2 3 4 5 6 7 8 9 10 11 12 13 14 15 16 17 5V GND" fill="#fff"/>
  <g id="g174" font-weight="700" font-size="16" font-family="Arial" fill="#ef4e51">
    <text style="-inkscape-font-specification:'Arial, Bold'" x="184.874" y="96.919" id="text174">
      x
    </text>
    <text style="-inkscape-font-specification:'Arial, Bold'" x="193.772" y="96.919" id="text173">
      i
    </text>
    <text style="-inkscape-font-specification:'Arial, Bold'" x="198.218" y="96.919" id="text172">
      r
    </text>
    <text style="-inkscape-font-specification:'Arial, Bold'" x="204.444" y="96.919" id="text171">
      k
    </text>
    <text style="-inkscape-font-specification:'Arial, Bold'" x="213.343" y="96.919" id="text170">
      a
    </text>
    <text style="-inkscape-font-specification:'Arial, Bold'" x="222.241" y="96.919" id="text169">
      :
    </text>
    <text style="-inkscape-font-specification:'Arial, Bold'" x="227.569" y="96.919" id="text168">
      b
    </text>
    <text style="-inkscape-font-specification:'Arial, Bold'" x="237.343" y="96.919" id="text167">
      i
    </text>
    <text style="-inkscape-font-specification:'Arial, Bold'" x="241.788" y="96.919" id="text166">
      t
    </text>
  </g>
</svg>
